<?xml version="1.0" encoding="iso-8859-1"?>
<!-- Generator: Adobe Illustrator 19.0.0, SVG Export Plug-In . SVG Version: 6.00 Build 0)  -->
<svg xmlns="http://www.w3.org/2000/svg" xmlns:xlink="http://www.w3.org/1999/xlink" version="1.1" id="Layer_1" x="0px" y="0px" viewBox="0 0 502 502" style="enable-background:new 0 0 502 502;" xml:space="preserve" width="512" height="512">
<g>
	<g>
		<path style="fill:#CCD7EB;" d="M413,492H89c-43.63,0-79-35.37-79-79V89c0-43.63,35.37-79,79-79h324c43.63,0,79,35.37,79,79v324    C492,456.63,456.63,492,413,492z"/>
		<path d="M413,502H89c-49.075,0-89-39.925-89-89V89C0,39.925,39.925,0,89,0h324c49.075,0,89,39.925,89,89v324    C502,462.075,462.075,502,413,502z M89,20c-38.047,0-69,30.953-69,69v324c0,38.047,30.953,69,69,69h324c38.047,0,69-30.953,69-69    V89c0-38.047-30.953-69-69-69H89z"/>
	</g>
	<g>
		<path d="M423.167,56H403c-5.522,0-10-4.477-10-10s4.478-10,10-10h20.167c5.522,0,10,4.477,10,10S428.689,56,423.167,56z"/>
	</g>
	<g>
		<path d="M361,56H78.833c-5.523,0-10-4.477-10-10s4.477-10,10-10H361c5.522,0,10,4.477,10,10S366.522,56,361,56z"/>
	</g>
	<g>
		<g>
			<g>
				<path style="fill:#4D93E8;" d="M208.4,403c6.093,0,12.186-2.324,16.835-6.973l120.792-120.792c9.298-9.298,9.298-24.372,0-33.67      L225.235,120.773c-9.298-9.298-24.372-9.298-33.67,0s-9.298,24.372,0,33.67L295.521,258.4L191.565,362.357      c-9.298,9.298-9.298,24.372,0,33.67C196.214,400.676,202.307,403,208.4,403z"/>
				<path d="M208.4,413c-9.031,0-17.521-3.517-23.906-9.902c-13.182-13.182-13.182-34.631,0-47.813l96.885-96.885l-96.885-96.885      c-13.182-13.182-13.182-34.63,0-47.813c13.182-13.182,34.629-13.182,47.812,0l120.792,120.792      c13.182,13.182,13.182,34.63,0,47.813L232.306,403.098C225.92,409.483,217.431,413,208.4,413z M208.4,123.807      c-3.536,0-7.072,1.346-9.764,4.038c-5.384,5.384-5.384,14.144,0,19.528l103.957,103.957c3.905,3.905,3.905,10.237,0,14.143      L198.636,369.428c-5.384,5.384-5.384,14.144,0,19.528c2.608,2.608,6.075,4.044,9.764,4.044s7.156-1.436,9.764-4.044      l120.792-120.792c5.384-5.384,5.384-14.144,0-19.528L218.164,127.844C215.472,125.152,211.936,123.807,208.4,123.807z"/>
			</g>
		</g>
	</g>
</g>















</svg>
