<svg width="152" height="32" viewBox="0 0 152 32" fill="none" xmlns="http://www.w3.org/2000/svg">
<g clip-path="url(#clip0)">
<path fill-rule="evenodd" clip-rule="evenodd" d="M136.207 0.00120338L136.413 0.00481345L136.618 0.0108302L136.823 0.0204571L137.028 0.0324907L137.231 0.0457277L137.433 0.0625747L137.635 0.0818285L137.836 0.103489L138.037 0.12876L138.237 0.155233L138.435 0.184114L138.634 0.215401L138.831 0.249096L139.028 0.2864L139.224 0.324907L139.417 0.365821L139.612 0.409142L139.805 0.45487L139.997 0.504208L140.188 0.553546L140.379 0.606493L140.568 0.661848L140.756 0.719609L140.943 0.778574L141.13 0.841149L141.315 0.904927L141.499 0.971112L141.682 1.0397L141.865 1.1107L142.046 1.1829L142.226 1.25751L142.404 1.33453L142.582 1.41395L142.759 1.49457L142.935 1.57881L143.108 1.66425L143.281 1.75089L143.453 1.83994L143.624 1.93139L143.794 2.02525L143.961 2.12032L144.129 2.21779L144.295 2.31767L144.458 2.41875L144.622 2.52224L144.783 2.62693L144.943 2.73403L145.102 2.84234L145.26 2.95305L145.416 3.06616L145.57 3.18048L145.724 3.296L145.876 3.41393L146.026 3.53306L146.175 3.6546L146.322 3.77855L146.469 3.9037L146.613 4.03005L146.755 4.15761L146.897 4.28757L147.037 4.41994L147.175 4.55351L147.311 4.68829L147.446 4.82427L147.58 4.96266L147.712 5.10225L147.842 5.24424L147.97 5.38624L148.096 5.53064L148.221 5.67745L148.345 5.82426L148.467 5.97348L148.586 6.1239L148.704 6.27552L148.819 6.42955L148.934 6.58358L149.047 6.74002L149.157 6.89766L149.266 7.0565L149.373 7.21655L149.477 7.3778L149.581 7.54146L149.682 7.70511L149.782 7.87118L149.879 8.03844L149.974 8.20571L150.068 8.37539L150.16 8.54626L150.249 8.71834L150.335 8.89163L150.421 9.06491L150.505 9.2406L150.586 9.4175L150.665 9.59559L150.742 9.77369L150.817 9.95419L150.889 10.1347L150.96 10.3176L151.029 10.5005L151.095 10.6846L151.159 10.87L151.221 11.0565L151.28 11.2442L151.338 11.4319L151.393 11.6208L151.445 11.8122L151.496 12.0023L151.545 12.1948L151.591 12.3874L151.634 12.5823L151.675 12.7761L151.713 12.9722L151.751 13.1684L151.784 13.3657L151.816 13.5643L151.844 13.7628L151.871 13.9626L151.896 14.1635L151.918 14.3645L151.937 14.5667L151.954 14.7688L151.967 14.9722L151.979 15.1768L151.989 15.3813L151.995 15.5871L151.999 15.7929L152 15.9999L151.999 16.2056L151.995 16.4126L151.989 16.6172L151.979 16.8218L151.967 17.0263L151.954 17.2297L151.937 17.4319L151.918 17.634L151.896 17.8362L151.871 18.036L151.844 18.2357L151.816 18.4343L151.784 18.6328L151.751 18.8302L151.713 19.0263L151.675 19.2225L151.634 19.4174L151.591 19.6112L151.545 19.8037L151.496 19.9962L151.445 20.1876L151.393 20.3777L151.338 20.5666L151.28 20.7556L151.221 20.9421L151.159 21.1286L151.095 21.3139L151.029 21.498L150.96 21.6821L150.889 21.8638L150.817 22.0444L150.742 22.2249L150.665 22.4042L150.586 22.581L150.505 22.7579L150.421 22.9336L150.335 23.1081L150.249 23.2814L150.16 23.4523L150.068 23.6232L149.974 23.7928L149.879 23.9613L149.782 24.1274L149.682 24.2934L149.581 24.4583L149.477 24.6207L149.373 24.782L149.266 24.942L149.157 25.1021L149.047 25.2585L148.934 25.415L148.819 25.5702L148.704 25.723L148.586 25.8746L148.467 26.0251L148.345 26.1743L148.221 26.3223L148.096 26.4679L147.97 26.6123L147.842 26.7555L147.712 26.8963L147.58 27.0359L147.446 27.1743L147.311 27.3115L147.175 27.4462L147.037 27.5798L146.897 27.711L146.755 27.8409L146.613 27.9697L146.469 28.096L146.322 28.2212L146.175 28.3439L146.026 28.4655L145.876 28.5846L145.724 28.7025L145.57 28.8193L145.416 28.9336L145.26 29.0455L145.102 29.1562L144.943 29.2657L144.783 29.3728L144.622 29.4775L144.458 29.581L144.295 29.6821L144.129 29.7808L143.961 29.8782L143.794 29.9733L143.624 30.0672L143.453 30.1586L143.281 30.2477L143.108 30.3355L142.935 30.4209L142.759 30.504L142.582 30.5846L142.404 30.664L142.226 30.741L142.046 30.8156L141.865 30.889L141.682 30.96L141.499 31.0274L141.315 31.0936L141.13 31.1586L140.943 31.22L140.756 31.2801L140.568 31.3367L140.379 31.3921L140.188 31.445L139.997 31.4955L139.805 31.5437L139.612 31.5894L139.417 31.6327L139.224 31.6736L139.028 31.7133L138.831 31.7495L138.634 31.7831L138.435 31.8144L138.237 31.8445L138.037 31.871L137.836 31.8951L137.635 31.9167L137.433 31.936L137.231 31.9528L137.028 31.9673L136.823 31.9781L136.618 31.9877L136.413 31.9937L136.207 31.9985L136 31.9997L135.794 31.9985L135.587 31.9937L135.383 31.9877L135.178 31.9781L134.973 31.9673L134.77 31.9528L134.568 31.936L134.366 31.9167L134.164 31.8951L133.964 31.871L133.764 31.8445L133.565 31.8144L133.367 31.7831L133.17 31.7495L132.973 31.7133L132.777 31.6736L132.582 31.6327L132.389 31.5894L132.196 31.5437L132.003 31.4955L131.812 31.445L131.622 31.3921L131.433 31.3367L131.244 31.2801L131.058 31.22L130.871 31.1586L130.686 31.0936L130.502 31.0274L130.318 30.96L130.136 30.889L129.955 30.8156L129.775 30.741L129.596 30.664L129.419 30.5846L129.242 30.504L129.066 30.4209L128.892 30.3355L128.718 30.2477L128.547 30.1586L128.377 30.0672L128.207 29.9733L128.038 29.8782L127.872 29.7808L127.706 29.6821L127.541 29.581L127.379 29.4775L127.218 29.3728L127.058 29.2657L126.898 29.1562L126.741 29.0455L126.585 28.9336L126.43 28.8193L126.277 28.7025L126.125 28.5846L125.975 28.4655L125.825 28.3439L125.677 28.2212L125.532 28.096L125.387 27.9697L125.244 27.8409L125.103 27.711L124.964 27.5798L124.825 27.4462L124.688 27.3115L124.553 27.1743L124.42 27.0359L124.289 26.8963L124.159 26.7555L124.03 26.6123L123.904 26.4679L123.779 26.3223L123.656 26.1743L123.534 26.0251L123.415 25.8746L123.297 25.723L123.18 25.5702L123.066 25.415L122.954 25.2585L122.844 25.1021L122.734 24.942L122.627 24.782L122.522 24.6207L122.419 24.4583L122.318 24.2934L122.219 24.1274L122.122 23.9613L122.026 23.7928L121.933 23.6232L121.841 23.4523L121.752 23.2814L121.664 23.1081L121.579 22.9336L121.496 22.7579L121.415 22.581L121.336 22.4042L121.259 22.2249L121.184 22.0444L121.111 21.8638L121.04 21.6821L120.972 21.498L120.906 21.3139L120.841 21.1286L120.78 20.9421L120.72 20.7556L120.663 20.5666L120.608 20.3777L120.555 20.1876L120.504 19.9962L120.456 19.8037L120.41 19.6112L120.367 19.4174L120.326 19.2225L120.286 19.0263L120.25 18.8302L120.217 18.6328L120.185 18.4343L120.155 18.2357L120.129 18.036L120.105 17.8362L120.083 17.634L120.064 17.4319L120.047 17.2297L120.032 17.0263L120.022 16.8218L120.012 16.6172L120.006 16.4126L120.001 16.2056L120 15.9999L120.001 15.7929L120.006 15.5871L120.012 15.3813L120.022 15.1768L120.032 14.9722L120.047 14.7688L120.064 14.5667L120.083 14.3645L120.105 14.1635L120.129 13.9626L120.155 13.7628L120.185 13.5643L120.217 13.3657L120.25 13.1684L120.286 12.9722L120.326 12.7761L120.367 12.5823L120.41 12.3874L120.456 12.1948L120.504 12.0023L120.555 11.8122L120.608 11.6208L120.663 11.4319L120.72 11.2442L120.78 11.0565L120.841 10.87L120.906 10.6846L120.972 10.5005L121.04 10.3176L121.111 10.1347L121.184 9.95419L121.259 9.77369L121.336 9.59559L121.415 9.4175L121.496 9.2406L121.579 9.06491L121.664 8.89163L121.752 8.71834L121.841 8.54626L121.933 8.37539L122.026 8.20571L122.122 8.03844L122.219 7.87118L122.318 7.70511L122.419 7.54146L122.522 7.3778L122.627 7.21655L122.734 7.0565L122.844 6.89766L122.954 6.74002L123.066 6.58358L123.18 6.42955L123.297 6.27552L123.415 6.1239L123.534 5.97348L123.656 5.82426L123.779 5.67745L123.904 5.53064L124.03 5.38624L124.159 5.24424L124.289 5.10225L124.42 4.96266L124.553 4.82427L124.688 4.68829L124.825 4.55351L124.964 4.41994L125.103 4.28757L125.244 4.15761L125.387 4.03005L125.532 3.9037L125.677 3.77855L125.825 3.6546L125.975 3.53306L126.125 3.41393L126.277 3.296L126.43 3.18048L126.585 3.06616L126.741 2.95305L126.898 2.84234L127.058 2.73403L127.218 2.62693L127.379 2.52224L127.541 2.41875L127.706 2.31767L127.872 2.21779L128.038 2.12032L128.207 2.02525L128.377 1.93139L128.547 1.83994L128.718 1.75089L128.892 1.66425L129.066 1.57881L129.242 1.49457L129.419 1.41395L129.596 1.33453L129.775 1.25751L129.955 1.1829L130.136 1.1107L130.318 1.0397L130.502 0.971112L130.686 0.904927L130.871 0.841149L131.058 0.778574L131.244 0.719609L131.433 0.661848L131.622 0.606493L131.812 0.553546L132.003 0.504208L132.196 0.45487L132.389 0.409142L132.582 0.365821L132.777 0.324907L132.973 0.2864L133.17 0.249096L133.367 0.215401L133.565 0.184114L133.764 0.155233L133.964 0.12876L134.164 0.103489L134.366 0.0818285L134.568 0.0625747L134.77 0.0457277L134.973 0.0324907L135.178 0.0204571L135.383 0.0108302L135.587 0.00481345L135.794 0.00120338L136 0L136.207 0.00120338ZM135.806 1.0012L135.612 1.00481L135.42 1.01082L135.229 1.01925L135.037 1.03008L134.846 1.04331L134.656 1.05896L134.467 1.07701L134.278 1.09746L134.09 1.12033L133.902 1.1456L133.716 1.17207L133.531 1.20216L133.345 1.23344L133.161 1.26834L132.978 1.30444L132.795 1.34295L132.614 1.38386L132.433 1.42718L132.253 1.47171L132.073 1.51984L131.895 1.56918L131.718 1.62093L131.541 1.67387L131.366 1.73043L131.191 1.78819L131.018 1.84836L130.846 1.90973L130.674 1.97471L130.503 2.0409L130.333 2.10829L130.165 2.17808L129.997 2.25028L129.83 2.32489L129.665 2.4007L129.501 2.47892L129.337 2.55955L129.174 2.64138L129.014 2.72441L128.854 2.81105L128.695 2.89769L128.538 2.98794L128.381 3.07819L128.226 3.17206L128.072 3.26712L127.919 3.36339L127.768 3.46207L127.617 3.56195L127.468 3.66423L127.32 3.76772L127.174 3.87362L127.029 3.98071L126.884 4.08902L126.742 4.19973L126.602 4.31284L126.462 4.42596L126.324 4.54148L126.186 4.65941L126.052 4.77734L125.917 4.89768L125.785 5.02042L125.653 5.14316L125.523 5.26831L125.396 5.39466L125.269 5.52342L125.144 5.65339L125.02 5.78335L124.899 5.91692L124.779 6.05049L124.659 6.18647L124.543 6.32245L124.427 6.46084L124.313 6.60043L124.201 6.74122L124.09 6.88442L123.982 7.02762L123.875 7.17323L123.769 7.32004L123.665 7.46685L123.563 7.61607L123.463 7.76649L123.365 7.91811L123.267 8.07094L123.172 8.22497L123.079 8.3802L122.988 8.53664L122.899 8.69428L122.811 8.85312L122.726 9.01317L122.641 9.17442L122.56 9.33687L122.48 9.49932L122.402 9.66418L122.326 9.83025L122.251 9.99631L122.179 10.1636L122.109 10.332L122.041 10.5017L121.975 10.6726L121.911 10.8447L121.848 11.0168L121.788 11.1912L121.73 11.3657L121.675 11.5414L121.621 11.7171L121.569 11.8952L121.52 12.0733L121.473 12.2526L121.427 12.4319L121.385 12.6136L121.344 12.7953L121.306 12.977L121.268 13.1611L121.235 13.3453L121.203 13.5294L121.173 13.7159L121.146 13.9024L121.122 14.0889L121.099 14.2767L121.078 14.4656L121.06 14.6545L121.045 14.8446L121.031 15.036L121.02 15.2273L121.011 15.4199L121.005 15.6124L121.001 15.8049L121 15.9999L121.001 16.1936L121.005 16.3874L121.011 16.5799L121.02 16.7712L121.031 16.9626L121.045 17.1539L121.06 17.344L121.078 17.533L121.099 17.7219L121.122 17.9096L121.146 18.0973L121.173 18.2839L121.203 18.4692L121.235 18.6545L121.268 18.8386L121.306 19.0215L121.344 19.2044L121.385 19.3861L121.427 19.5666L121.473 19.7471L121.52 19.9264L121.569 20.1045L121.621 20.2814L121.675 20.4583L121.73 20.634L121.788 20.8085L121.848 20.9818L121.911 21.1539L121.975 21.3259L122.041 21.4968L122.109 21.6665L122.179 21.835L122.251 22.0022L122.326 22.1695L122.402 22.3344L122.48 22.4992L122.56 22.6629L122.641 22.8253L122.726 22.9854L122.811 23.1454L122.899 23.3043L122.988 23.4619L123.079 23.6183L123.172 23.7736L123.267 23.9276L123.365 24.0804L123.463 24.2321L123.563 24.3825L123.665 24.5317L123.769 24.6797L123.875 24.8253L123.982 24.9709L124.09 25.1153L124.201 25.2573L124.313 25.3981L124.427 25.5377L124.543 25.6761L124.659 25.8133L124.779 25.9481L124.899 26.0828L125.02 26.2152L125.144 26.3464L125.269 26.4763L125.396 26.6039L125.523 26.7302L125.653 26.8554L125.785 26.9793L125.917 27.1009L126.052 27.2212L126.186 27.3403L126.324 27.4571L126.462 27.5726L126.602 27.6869L126.742 27.7988L126.884 27.9095L127.029 28.0178L127.174 28.1249L127.32 28.2308L127.468 28.3343L127.617 28.4366L127.768 28.5365L127.919 28.6352L128.072 28.7326L128.226 28.8277L128.381 28.9204L128.538 29.0118L128.695 29.1009L128.854 29.1887L129.014 29.2741L129.174 29.3584L129.337 29.4402L129.501 29.5196L129.665 29.5978L129.83 29.6737L129.997 29.7483L130.165 29.8205L130.333 29.8903L130.503 29.9588L130.674 30.025L130.846 30.0888L131.018 30.1514L131.191 30.2116L131.366 30.2693L131.541 30.3247L131.718 30.3788L131.895 30.4306L132.073 30.4799L132.253 30.5268L132.433 30.5726L132.614 30.6147L132.795 30.6556L132.978 30.6941L133.161 30.7314L133.345 30.7651L133.531 30.7964L133.716 30.8265L133.902 30.8541L134.09 30.8782L134.278 30.9011L134.467 30.9215L134.656 30.9396L134.846 30.9552L135.037 30.9685L135.229 30.9793L135.42 30.9889L135.612 30.9949L135.806 30.9986L136 30.9998L136.195 30.9986L136.387 30.9949L136.58 30.9889L136.772 30.9793L136.964 30.9685L137.155 30.9552L137.345 30.9396L137.534 30.9215L137.723 30.9011L137.911 30.8782L138.097 30.8541L138.284 30.8265L138.47 30.7964L138.654 30.7651L138.839 30.7314L139.023 30.6941L139.204 30.6556L139.386 30.6147L139.568 30.5726L139.747 30.5268L139.926 30.4799L140.105 30.4306L140.283 30.3788L140.458 30.3247L140.634 30.2693L140.808 30.2116L140.983 30.1514L141.155 30.0888L141.327 30.025L141.498 29.9588L141.668 29.8903L141.836 29.8205L142.003 29.7483L142.169 29.6737L142.336 29.5978L142.5 29.5196L142.663 29.4402L142.825 29.3584L142.987 29.2741L143.147 29.1887L143.305 29.1009L143.463 29.0118L143.62 28.9204L143.775 28.8277L143.929 28.7326L144.082 28.6352L144.233 28.5365L144.384 28.4366L144.533 28.3343L144.68 28.2308L144.827 28.1249L144.972 28.0178L145.115 27.9095L145.259 27.7988L145.399 27.6869L145.539 27.5726L145.677 27.4571L145.813 27.3403L145.949 27.2212L146.083 27.1009L146.216 26.9793L146.346 26.8554L146.476 26.7302L146.605 26.6039L146.731 26.4763L146.857 26.3464L146.979 26.2152L147.102 26.0828L147.222 25.9481L147.34 25.8133L147.458 25.6761L147.574 25.5377L147.687 25.3981L147.8 25.2573L147.911 25.1153L148.019 24.9709L148.126 24.8253L148.232 24.6797L148.336 24.5317L148.438 24.3825L148.538 24.2321L148.636 24.0804L148.733 23.9276L148.828 23.7736L148.922 23.6183L149.012 23.4619L149.102 23.3043L149.189 23.1454L149.275 22.9854L149.358 22.8253L149.44 22.6629L149.521 22.4992L149.599 22.3344L149.675 22.1695L149.749 22.0022L149.822 21.835L149.891 21.6665L149.959 21.4968L150.025 21.3259L150.09 21.1539L150.151 20.9818L150.212 20.8085L150.269 20.634L150.326 20.4583L150.379 20.2814L150.431 20.1045L150.48 19.9264L150.528 19.7471L150.573 19.5666L150.616 19.3861L150.657 19.2044L150.695 19.0215L150.731 18.8386L150.766 18.6545L150.798 18.4692L150.828 18.2839L150.854 18.0973L150.879 17.9096L150.902 17.7219L150.923 17.533L150.941 17.344L150.956 17.1539L150.97 16.9626L150.98 16.7712L150.989 16.5799L150.995 16.3874L150.999 16.1936L151 15.9999L150.999 15.8049L150.995 15.6124L150.989 15.4199L150.98 15.2273L150.97 15.036L150.956 14.8446L150.941 14.6545L150.923 14.4656L150.902 14.2767L150.879 14.0889L150.854 13.9024L150.828 13.7159L150.798 13.5294L150.766 13.3453L150.731 13.1611L150.695 12.977L150.657 12.7953L150.616 12.6136L150.573 12.4319L150.528 12.2526L150.48 12.0733L150.431 11.8952L150.379 11.7171L150.326 11.5414L150.269 11.3657L150.212 11.1912L150.151 11.0168L150.09 10.8447L150.025 10.6726L149.959 10.5017L149.891 10.332L149.822 10.1636L149.749 9.99631L149.675 9.83025L149.599 9.66418L149.521 9.49932L149.44 9.33687L149.358 9.17442L149.275 9.01317L149.189 8.85312L149.102 8.69428L149.012 8.53664L148.922 8.3802L148.828 8.22497L148.733 8.07094L148.636 7.91811L148.538 7.76649L148.438 7.61607L148.336 7.46685L148.232 7.32004L148.126 7.17323L148.019 7.02762L147.911 6.88442L147.8 6.74122L147.687 6.60043L147.574 6.46084L147.458 6.32245L147.34 6.18647L147.222 6.05049L147.102 5.91692L146.979 5.78335L146.857 5.65339L146.731 5.52342L146.605 5.39466L146.476 5.26831L146.346 5.14316L146.216 5.02042L146.083 4.89768L145.949 4.77734L145.813 4.65941L145.677 4.54148L145.539 4.42596L145.399 4.31284L145.257 4.19973L145.115 4.08902L144.972 3.98071L144.827 3.87362L144.68 3.76772L144.533 3.66423L144.384 3.56195L144.233 3.46207L144.082 3.36339L143.929 3.26712L143.775 3.17206L143.62 3.07819L143.463 2.98794L143.305 2.89769L143.147 2.81105L142.987 2.72441L142.825 2.64138L142.663 2.55955L142.5 2.47892L142.336 2.4007L142.169 2.32489L142.003 2.25028L141.836 2.17808L141.668 2.10829L141.498 2.0409L141.327 1.97471L141.155 1.90973L140.983 1.84836L140.808 1.78819L140.634 1.73043L140.458 1.67387L140.283 1.62093L140.105 1.56918L139.926 1.51984L139.747 1.47171L139.568 1.42718L139.386 1.38386L139.204 1.34295L139.023 1.30444L138.839 1.26834L138.654 1.23344L138.47 1.20216L138.284 1.17207L138.097 1.1456L137.911 1.12033L137.723 1.09746L137.534 1.07701L137.345 1.05896L137.155 1.04331L136.964 1.03008L136.772 1.01925L136.58 1.01082L136.387 1.00481L136.195 1.0012L136 0.999992L135.806 1.0012Z" fill="#666D89"/>
<path d="M129.079 13.234H132.072V23H129.079V13.234ZM132.17 10.5179C132.17 11.3564 131.56 12.0356 130.555 12.0356C129.61 12.0356 129 11.3564 129 10.5179C129 9.659 129.63 9 130.595 9C131.56 9 132.151 9.659 132.17 10.5179Z" fill="#666D89"/>
<path d="M133.863 16.3448C133.863 15.1267 133.824 14.1083 133.785 13.2294H136.383L136.522 14.5874H136.581C136.974 13.9482 137.939 13.0094 139.554 13.0094C141.523 13.0094 143 14.3478 143 17.2234V22.9953H140.007V17.5831C140.007 16.3248 139.574 15.4664 138.49 15.4664C137.663 15.4664 137.172 16.0454 136.955 16.6045C136.876 16.8041 136.856 17.0839 136.856 17.3635V22.9953H133.863V16.3448Z" fill="#666D89"/>
</g>
<g clip-path="url(#clip1)">
<path fill-rule="evenodd" clip-rule="evenodd" d="M96.2068 0.00120338L96.4126 0.00481345L96.6184 0.0108302L96.823 0.0204571L97.0275 0.0324907L97.2309 0.0457277L97.4331 0.0625747L97.6352 0.0818285L97.8362 0.103489L98.0372 0.12876L98.2369 0.155233L98.4355 0.184114L98.634 0.215401L98.8314 0.249096L99.0275 0.2864L99.2237 0.324907L99.4174 0.365821L99.6124 0.409142L99.8049 0.45487L99.9974 0.504208L100.188 0.553546L100.379 0.606493L100.568 0.661848L100.756 0.719609L100.943 0.778574L101.13 0.841149L101.315 0.904927L101.499 0.971112L101.682 1.0397L101.865 1.1107L102.046 1.1829L102.226 1.25751L102.404 1.33453L102.582 1.41395L102.759 1.49457L102.935 1.57881L103.108 1.66425L103.281 1.75089L103.453 1.83994L103.624 1.93139L103.794 2.02525L103.961 2.12032L104.129 2.21779L104.295 2.31767L104.458 2.41875L104.622 2.52224L104.783 2.62693L104.943 2.73403L105.102 2.84234L105.26 2.95305L105.416 3.06616L105.57 3.18048L105.724 3.296L105.876 3.41393L106.026 3.53306L106.175 3.6546L106.322 3.77855L106.469 3.9037L106.614 4.03005L106.755 4.15761L106.897 4.28757L107.037 4.41994L107.175 4.55351L107.311 4.68829L107.446 4.82427L107.58 4.96266L107.712 5.10225L107.842 5.24424L107.97 5.38624L108.096 5.53064L108.221 5.67745L108.345 5.82426L108.467 5.97348L108.586 6.1239L108.704 6.27552L108.819 6.42955L108.934 6.58358L109.047 6.74002L109.157 6.89766L109.266 7.0565L109.373 7.21655L109.477 7.3778L109.581 7.54146L109.682 7.70511L109.782 7.87118L109.879 8.03844L109.974 8.20571L110.068 8.37539L110.16 8.54626L110.249 8.71834L110.335 8.89163L110.421 9.06491L110.505 9.2406L110.586 9.4175L110.665 9.59559L110.742 9.77369L110.817 9.95419L110.889 10.1347L110.96 10.3176L111.029 10.5005L111.095 10.6846L111.159 10.87L111.221 11.0565L111.28 11.2442L111.338 11.4319L111.393 11.6208L111.445 11.8122L111.496 12.0023L111.545 12.1948L111.591 12.3874L111.634 12.5823L111.675 12.7761L111.713 12.9722L111.751 13.1684L111.784 13.3657L111.816 13.5643L111.845 13.7628L111.871 13.9626L111.896 14.1635L111.918 14.3645L111.937 14.5667L111.954 14.7688L111.967 14.9722L111.979 15.1768L111.989 15.3813L111.995 15.5871L111.999 15.7929L112 15.9999L111.999 16.2056L111.995 16.4126L111.989 16.6172L111.979 16.8218L111.967 17.0263L111.954 17.2297L111.937 17.4319L111.918 17.634L111.896 17.8362L111.871 18.036L111.845 18.2357L111.816 18.4343L111.784 18.6328L111.751 18.8302L111.713 19.0263L111.675 19.2225L111.634 19.4174L111.591 19.6112L111.545 19.8037L111.496 19.9962L111.445 20.1876L111.393 20.3777L111.338 20.5666L111.28 20.7556L111.221 20.9421L111.159 21.1286L111.095 21.3139L111.029 21.498L110.96 21.6821L110.889 21.8638L110.817 22.0444L110.742 22.2249L110.665 22.4042L110.586 22.581L110.505 22.7579L110.421 22.9336L110.335 23.1081L110.249 23.2814L110.16 23.4523L110.068 23.6232L109.974 23.7928L109.879 23.9613L109.782 24.1274L109.682 24.2934L109.581 24.4583L109.477 24.6207L109.373 24.782L109.266 24.942L109.157 25.1021L109.047 25.2585L108.934 25.415L108.819 25.5702L108.704 25.723L108.586 25.8746L108.467 26.0251L108.345 26.1743L108.221 26.3223L108.096 26.4679L107.97 26.6123L107.842 26.7555L107.712 26.8963L107.58 27.0359L107.446 27.1743L107.311 27.3115L107.175 27.4462L107.037 27.5798L106.897 27.711L106.755 27.8409L106.614 27.9697L106.469 28.096L106.322 28.2212L106.175 28.3439L106.026 28.4655L105.876 28.5846L105.724 28.7025L105.57 28.8193L105.416 28.9336L105.26 29.0455L105.102 29.1562L104.943 29.2657L104.783 29.3728L104.622 29.4775L104.458 29.581L104.295 29.6821L104.129 29.7808L103.961 29.8782L103.794 29.9733L103.624 30.0672L103.453 30.1586L103.281 30.2477L103.108 30.3355L102.935 30.4209L102.759 30.504L102.582 30.5846L102.404 30.664L102.226 30.741L102.046 30.8156L101.865 30.889L101.682 30.96L101.499 31.0274L101.315 31.0936L101.13 31.1586L100.943 31.22L100.756 31.2801L100.568 31.3367L100.379 31.3921L100.188 31.445L99.9974 31.4955L99.8049 31.5437L99.6124 31.5894L99.4174 31.6327L99.2237 31.6736L99.0275 31.7133L98.8314 31.7495L98.634 31.7831L98.4355 31.8144L98.2369 31.8445L98.0372 31.871L97.8362 31.8951L97.6352 31.9167L97.4331 31.936L97.2309 31.9528L97.0275 31.9673L96.823 31.9781L96.6184 31.9877L96.4126 31.9937L96.2068 31.9985L95.9999 31.9997L95.7941 31.9985L95.5871 31.9937L95.3825 31.9877L95.178 31.9781L94.9734 31.9673L94.77 31.9528L94.5679 31.936L94.3657 31.9167L94.1635 31.8951L93.9638 31.871L93.764 31.8445L93.5655 31.8144L93.3669 31.7831L93.1696 31.7495L92.9734 31.7133L92.7773 31.6736L92.5823 31.6327L92.3886 31.5894L92.196 31.5437L92.0035 31.4955L91.8122 31.445L91.622 31.3921L91.4331 31.3367L91.2442 31.2801L91.0577 31.22L90.8711 31.1586L90.6858 31.0936L90.5017 31.0274L90.3176 30.96L90.1359 30.889L89.9554 30.8156L89.7749 30.741L89.5956 30.664L89.4187 30.5846L89.2418 30.504L89.0661 30.4209L88.8916 30.3355L88.7183 30.2477L88.5475 30.1586L88.3766 30.0672L88.2069 29.9733L88.0384 29.8782L87.8724 29.7808L87.7063 29.6821L87.5414 29.581L87.379 29.4775L87.2177 29.3728L87.0577 29.2657L86.8977 29.1562L86.7412 29.0455L86.5848 28.9336L86.4295 28.8193L86.2767 28.7025L86.1251 28.5846L85.9747 28.4655L85.8255 28.3439L85.6774 28.2212L85.5318 28.096L85.3874 27.9697L85.2442 27.8409L85.1034 27.711L84.9639 27.5798L84.8255 27.4462L84.6883 27.3115L84.5535 27.1743L84.4199 27.0359L84.2888 26.8963L84.1588 26.7555L84.03 26.6123L83.9037 26.4679L83.7785 26.3223L83.6558 26.1743L83.5343 26.0251L83.4151 25.8746L83.2972 25.723L83.1805 25.5702L83.0662 25.415L82.9542 25.2585L82.8435 25.1021L82.734 24.942L82.6269 24.782L82.5222 24.6207L82.4187 24.4583L82.3177 24.2934L82.219 24.1274L82.1215 23.9613L82.0265 23.7928L81.9326 23.6232L81.8411 23.4523L81.7521 23.2814L81.6642 23.1081L81.5788 22.9336L81.4958 22.7579L81.4151 22.581L81.3357 22.4042L81.2587 22.2249L81.1841 22.0444L81.1107 21.8638L81.0397 21.6821L80.9723 21.498L80.9061 21.3139L80.8411 21.1286L80.7798 20.9421L80.7196 20.7556L80.663 20.5666L80.6077 20.3777L80.5547 20.1876L80.5042 19.9962L80.4561 19.8037L80.4103 19.6112L80.367 19.4174L80.3261 19.2225L80.2864 19.0263L80.2503 18.8302L80.2166 18.6328L80.1853 18.4343L80.1552 18.2357L80.1288 18.036L80.1047 17.8362L80.083 17.634L80.0638 17.4319L80.0469 17.2297L80.0325 17.0263L80.0217 16.8218L80.012 16.6172L80.006 16.4126L80.0012 16.2056L80 15.9999L80.0012 15.7929L80.006 15.5871L80.012 15.3813L80.0217 15.1768L80.0325 14.9722L80.0469 14.7688L80.0638 14.5667L80.083 14.3645L80.1047 14.1635L80.1288 13.9626L80.1552 13.7628L80.1853 13.5643L80.2166 13.3657L80.2503 13.1684L80.2864 12.9722L80.3261 12.7761L80.367 12.5823L80.4103 12.3874L80.4561 12.1948L80.5042 12.0023L80.5547 11.8122L80.6077 11.6208L80.663 11.4319L80.7196 11.2442L80.7798 11.0565L80.8411 10.87L80.9061 10.6846L80.9723 10.5005L81.0397 10.3176L81.1107 10.1347L81.1841 9.95419L81.2587 9.77369L81.3357 9.59559L81.4151 9.4175L81.4958 9.2406L81.5788 9.06491L81.6642 8.89163L81.7521 8.71834L81.8411 8.54626L81.9326 8.37539L82.0265 8.20571L82.1215 8.03844L82.219 7.87118L82.3177 7.70511L82.4187 7.54146L82.5222 7.3778L82.6269 7.21655L82.734 7.0565L82.8435 6.89766L82.9542 6.74002L83.0662 6.58358L83.1805 6.42955L83.2972 6.27552L83.4151 6.1239L83.5343 5.97348L83.6558 5.82426L83.7785 5.67745L83.9037 5.53064L84.03 5.38624L84.1588 5.24424L84.2888 5.10225L84.4199 4.96266L84.5535 4.82427L84.6883 4.68829L84.8255 4.55351L84.9639 4.41994L85.1034 4.28757L85.2442 4.15761L85.3874 4.03005L85.5318 3.9037L85.6774 3.77855L85.8255 3.6546L85.9747 3.53306L86.1251 3.41393L86.2767 3.296L86.4295 3.18048L86.5848 3.06616L86.7412 2.95305L86.8977 2.84234L87.0577 2.73403L87.2177 2.62693L87.379 2.52224L87.5414 2.41875L87.7063 2.31767L87.8724 2.21779L88.0384 2.12032L88.2069 2.02525L88.3766 1.93139L88.5475 1.83994L88.7183 1.75089L88.8916 1.66425L89.0661 1.57881L89.2418 1.49457L89.4187 1.41395L89.5956 1.33453L89.7749 1.25751L89.9554 1.1829L90.1359 1.1107L90.3176 1.0397L90.5017 0.971112L90.6858 0.904927L90.8711 0.841149L91.0577 0.778574L91.2442 0.719609L91.4331 0.661848L91.622 0.606493L91.8122 0.553546L92.0035 0.504208L92.196 0.45487L92.3886 0.409142L92.5823 0.365821L92.7773 0.324907L92.9734 0.2864L93.1696 0.249096L93.3669 0.215401L93.5655 0.184114L93.764 0.155233L93.9638 0.12876L94.1635 0.103489L94.3657 0.0818285L94.5679 0.0625747L94.77 0.0457277L94.9734 0.0324907L95.178 0.0204571L95.3825 0.0108302L95.5871 0.00481345L95.7941 0.00120338L95.9999 0L96.2068 0.00120338ZM95.8061 1.0012L95.6124 1.00481L95.4198 1.01082L95.2285 1.01925L95.0372 1.03008L94.8458 1.04331L94.6557 1.05896L94.4668 1.07701L94.2779 1.09746L94.0901 1.12033L93.9024 1.1456L93.7159 1.17207L93.5306 1.20216L93.3453 1.23344L93.1611 1.26834L92.9782 1.30444L92.7953 1.34295L92.6136 1.38386L92.4331 1.42718L92.2526 1.47171L92.0733 1.51984L91.8952 1.56918L91.7183 1.62093L91.5414 1.67387L91.3657 1.73043L91.1912 1.78819L91.018 1.84836L90.8459 1.90973L90.6738 1.97471L90.5029 2.0409L90.3332 2.10829L90.1648 2.17808L89.9975 2.25028L89.8302 2.32489L89.6654 2.4007L89.5005 2.47892L89.3369 2.55955L89.1744 2.64138L89.0144 2.72441L88.8543 2.81105L88.6955 2.89769L88.5378 2.98794L88.3814 3.07819L88.2262 3.17206L88.0721 3.26712L87.9193 3.36339L87.7677 3.46207L87.6173 3.56195L87.468 3.66423L87.32 3.76772L87.1744 3.87362L87.0288 3.98071L86.8844 4.08902L86.7424 4.19973L86.6016 4.31284L86.462 4.42596L86.3236 4.54148L86.1865 4.65941L86.0517 4.77734L85.9169 4.89768L85.7845 5.02042L85.6534 5.14316L85.5234 5.26831L85.3959 5.39466L85.2695 5.52342L85.1444 5.65339L85.0204 5.78335L84.8989 5.91692L84.7785 6.05049L84.6594 6.18647L84.5427 6.32245L84.4272 6.46084L84.3128 6.60043L84.2009 6.74122L84.0902 6.88442L83.9819 7.02762L83.8748 7.17323L83.7689 7.32004L83.6654 7.46685L83.5631 7.61607L83.4633 7.76649L83.3646 7.91811L83.2671 8.07094L83.172 8.22497L83.0794 8.3802L82.9879 8.53664L82.8989 8.69428L82.811 8.85312L82.7256 9.01317L82.6414 9.17442L82.5595 9.33687L82.4801 9.49932L82.4019 9.66418L82.3261 9.83025L82.2515 9.99631L82.1793 10.1636L82.1095 10.332L82.0409 10.5017L81.9747 10.6726L81.9109 10.8447L81.8484 11.0168L81.7882 11.1912L81.7304 11.3657L81.6751 11.5414L81.6209 11.7171L81.5692 11.8952L81.5198 12.0733L81.4729 12.2526L81.4272 12.4319L81.3851 12.6136L81.3441 12.7953L81.3056 12.977L81.2683 13.1611L81.2346 13.3453L81.2034 13.5294L81.1733 13.7159L81.1456 13.9024L81.1215 14.0889L81.0987 14.2767L81.0782 14.4656L81.0602 14.6545L81.0445 14.8446L81.0313 15.036L81.0204 15.2273L81.0108 15.4199L81.0048 15.6124L81.0012 15.8049L81 15.9999L81.0012 16.1936L81.0048 16.3874L81.0108 16.5799L81.0204 16.7712L81.0313 16.9626L81.0445 17.1539L81.0602 17.344L81.0782 17.533L81.0987 17.7219L81.1215 17.9096L81.1456 18.0973L81.1733 18.2839L81.2034 18.4692L81.2346 18.6545L81.2683 18.8386L81.3056 19.0215L81.3441 19.2044L81.3851 19.3861L81.4272 19.5666L81.4729 19.7471L81.5198 19.9264L81.5692 20.1045L81.6209 20.2814L81.6751 20.4583L81.7304 20.634L81.7882 20.8085L81.8484 20.9818L81.9109 21.1539L81.9747 21.3259L82.0409 21.4968L82.1095 21.6665L82.1793 21.835L82.2515 22.0022L82.3261 22.1695L82.4019 22.3344L82.4801 22.4992L82.5595 22.6629L82.6414 22.8253L82.7256 22.9854L82.811 23.1454L82.8989 23.3043L82.9879 23.4619L83.0794 23.6183L83.172 23.7736L83.2671 23.9276L83.3646 24.0804L83.4633 24.2321L83.5631 24.3825L83.6654 24.5317L83.7689 24.6797L83.8748 24.8253L83.9819 24.9709L84.0902 25.1153L84.2009 25.2573L84.3128 25.3981L84.4272 25.5377L84.5427 25.6761L84.6594 25.8133L84.7785 25.9481L84.8989 26.0828L85.0204 26.2152L85.1444 26.3464L85.2695 26.4763L85.3959 26.6039L85.5234 26.7302L85.6534 26.8554L85.7845 26.9793L85.9169 27.1009L86.0517 27.2212L86.1865 27.3403L86.3236 27.4571L86.462 27.5726L86.6016 27.6869L86.7424 27.7988L86.8844 27.9095L87.0288 28.0178L87.1744 28.1249L87.32 28.2308L87.468 28.3343L87.6173 28.4366L87.7677 28.5365L87.9193 28.6352L88.0721 28.7326L88.2262 28.8277L88.3814 28.9204L88.5378 29.0118L88.6955 29.1009L88.8543 29.1887L89.0144 29.2741L89.1744 29.3584L89.3369 29.4402L89.5005 29.5196L89.6654 29.5978L89.8302 29.6737L89.9975 29.7483L90.1648 29.8205L90.3332 29.8903L90.5029 29.9588L90.6738 30.025L90.8459 30.0888L91.018 30.1514L91.1912 30.2116L91.3657 30.2693L91.5414 30.3247L91.7183 30.3788L91.8952 30.4306L92.0733 30.4799L92.2526 30.5268L92.4331 30.5726L92.6136 30.6147L92.7953 30.6556L92.9782 30.6941L93.1611 30.7314L93.3453 30.7651L93.5306 30.7964L93.7159 30.8265L93.9024 30.8541L94.0901 30.8782L94.2779 30.9011L94.4668 30.9215L94.6557 30.9396L94.8458 30.9552L95.0372 30.9685L95.2285 30.9793L95.4198 30.9889L95.6124 30.9949L95.8061 30.9986L95.9999 30.9998L96.1948 30.9986L96.3873 30.9949L96.5799 30.9889L96.7724 30.9793L96.9638 30.9685L97.1551 30.9552L97.3452 30.9396L97.5342 30.9215L97.7231 30.9011L97.9108 30.8782L98.0973 30.8541L98.2838 30.8265L98.4704 30.7964L98.6545 30.7651L98.8386 30.7314L99.0227 30.6941L99.2044 30.6556L99.3861 30.6147L99.5678 30.5726L99.7471 30.5268L99.9264 30.4799L100.105 30.4306L100.283 30.3788L100.458 30.3247L100.634 30.2693L100.808 30.2116L100.983 30.1514L101.155 30.0888L101.327 30.025L101.498 29.9588L101.668 29.8903L101.836 29.8205L102.003 29.7483L102.169 29.6737L102.336 29.5978L102.5 29.5196L102.663 29.4402L102.825 29.3584L102.987 29.2741L103.147 29.1887L103.305 29.1009L103.463 29.0118L103.62 28.9204L103.775 28.8277L103.929 28.7326L104.082 28.6352L104.233 28.5365L104.384 28.4366L104.533 28.3343L104.68 28.2308L104.827 28.1249L104.972 28.0178L105.115 27.9095L105.259 27.7988L105.399 27.6869L105.539 27.5726L105.677 27.4571L105.813 27.3403L105.949 27.2212L106.083 27.1009L106.216 26.9793L106.346 26.8554L106.476 26.7302L106.605 26.6039L106.731 26.4763L106.857 26.3464L106.979 26.2152L107.102 26.0828L107.222 25.9481L107.34 25.8133L107.458 25.6761L107.574 25.5377L107.687 25.3981L107.8 25.2573L107.911 25.1153L108.019 24.9709L108.126 24.8253L108.232 24.6797L108.336 24.5317L108.438 24.3825L108.538 24.2321L108.636 24.0804L108.733 23.9276L108.828 23.7736L108.922 23.6183L109.012 23.4619L109.102 23.3043L109.189 23.1454L109.275 22.9854L109.358 22.8253L109.44 22.6629L109.521 22.4992L109.599 22.3344L109.675 22.1695L109.749 22.0022L109.822 21.835L109.891 21.6665L109.959 21.4968L110.025 21.3259L110.09 21.1539L110.151 20.9818L110.212 20.8085L110.269 20.634L110.326 20.4583L110.379 20.2814L110.431 20.1045L110.48 19.9264L110.528 19.7471L110.573 19.5666L110.616 19.3861L110.657 19.2044L110.695 19.0215L110.731 18.8386L110.766 18.6545L110.798 18.4692L110.828 18.2839L110.854 18.0973L110.879 17.9096L110.902 17.7219L110.923 17.533L110.941 17.344L110.956 17.1539L110.97 16.9626L110.98 16.7712L110.989 16.5799L110.995 16.3874L110.999 16.1936L111 15.9999L110.999 15.8049L110.995 15.6124L110.989 15.4199L110.98 15.2273L110.97 15.036L110.956 14.8446L110.941 14.6545L110.923 14.4656L110.902 14.2767L110.879 14.0889L110.854 13.9024L110.828 13.7159L110.798 13.5294L110.766 13.3453L110.731 13.1611L110.695 12.977L110.657 12.7953L110.616 12.6136L110.573 12.4319L110.528 12.2526L110.48 12.0733L110.431 11.8952L110.379 11.7171L110.326 11.5414L110.269 11.3657L110.212 11.1912L110.151 11.0168L110.09 10.8447L110.025 10.6726L109.959 10.5017L109.891 10.332L109.822 10.1636L109.749 9.99631L109.675 9.83025L109.599 9.66418L109.521 9.49932L109.44 9.33687L109.358 9.17442L109.275 9.01317L109.189 8.85312L109.102 8.69428L109.012 8.53664L108.922 8.3802L108.828 8.22497L108.733 8.07094L108.636 7.91811L108.538 7.76649L108.438 7.61607L108.336 7.46685L108.232 7.32004L108.126 7.17323L108.019 7.02762L107.911 6.88442L107.8 6.74122L107.687 6.60043L107.574 6.46084L107.458 6.32245L107.34 6.18647L107.222 6.05049L107.102 5.91692L106.979 5.78335L106.857 5.65339L106.731 5.52342L106.605 5.39466L106.476 5.26831L106.346 5.14316L106.216 5.02042L106.083 4.89768L105.949 4.77734L105.813 4.65941L105.677 4.54148L105.539 4.42596L105.399 4.31284L105.257 4.19973L105.115 4.08902L104.972 3.98071L104.827 3.87362L104.68 3.76772L104.533 3.66423L104.384 3.56195L104.233 3.46207L104.082 3.36339L103.929 3.26712L103.775 3.17206L103.62 3.07819L103.463 2.98794L103.305 2.89769L103.147 2.81105L102.987 2.72441L102.825 2.64138L102.663 2.55955L102.5 2.47892L102.336 2.4007L102.169 2.32489L102.003 2.25028L101.836 2.17808L101.668 2.10829L101.498 2.0409L101.327 1.97471L101.155 1.90973L100.983 1.84836L100.808 1.78819L100.634 1.73043L100.458 1.67387L100.283 1.62093L100.105 1.56918L99.9264 1.51984L99.7471 1.47171L99.5678 1.42718L99.3861 1.38386L99.2044 1.34295L99.0227 1.30444L98.8386 1.26834L98.6545 1.23344L98.4704 1.20216L98.2838 1.17207L98.0973 1.1456L97.9108 1.12033L97.7231 1.09746L97.5342 1.07701L97.3452 1.05896L97.1551 1.04331L96.9638 1.03008L96.7724 1.01925L96.5799 1.01082L96.3873 1.00481L96.1948 1.0012L95.9999 0.999992L95.8061 1.0012Z" fill="#666D89"/>
<path d="M103 11.4204C102.485 11.6615 101.931 11.8242 101.35 11.8975C101.943 11.5226 102.399 10.9288 102.613 10.2215C102.058 10.5685 101.443 10.8208 100.789 10.9566C100.265 10.3677 99.5187 10 98.6927 10C97.1065 10 95.8204 11.3564 95.8204 13.0292C95.8204 13.2667 95.8457 13.4979 95.8949 13.7195C93.5078 13.5934 91.3908 12.3872 89.9745 10.5544C89.7272 11.002 89.5856 11.5223 89.5856 12.0775C89.5856 13.1284 90.0926 14.0554 90.8632 14.5989C90.3927 14.5831 89.9496 14.447 89.5623 14.2201C89.562 14.2326 89.562 14.2453 89.562 14.2581C89.562 15.7259 90.5523 16.9503 91.866 17.2284C91.6253 17.2978 91.3715 17.335 91.1093 17.335C90.9244 17.335 90.7447 17.3159 90.5691 17.2806C90.9346 18.484 91.9957 19.36 93.2522 19.3842C92.269 20.197 91.0309 20.6812 89.6851 20.6812C89.4533 20.6812 89.2248 20.6668 89 20.6385C90.271 21.4983 91.7804 22 93.403 22C98.6859 22 101.575 17.3836 101.575 13.3804C101.575 13.2494 101.572 13.1186 101.567 12.9884C102.128 12.5615 102.615 12.028 103 11.4204Z" fill="#666D89"/>
</g>
<g clip-path="url(#clip2)">
<path d="M20 11.4338H17.7147C17.4446 11.4338 17.1429 11.7793 17.1429 12.2415V13.846H20V16.1327H17.1429V23H14.4456V16.1327H12V13.846H14.4456V12.5C14.4456 10.5699 15.8234 9 17.7147 9H20V11.4338Z" fill="#666D89"/>
<path fill-rule="evenodd" clip-rule="evenodd" d="M16.2068 0.00120338L16.4126 0.00481345L16.6184 0.0108302L16.823 0.0204571L17.0275 0.0324907L17.2309 0.0457277L17.4331 0.0625747L17.6352 0.0818285L17.8362 0.103489L18.0372 0.12876L18.2369 0.155233L18.4355 0.184114L18.634 0.215401L18.8314 0.249096L19.0275 0.2864L19.2237 0.324907L19.4174 0.365821L19.6124 0.409142L19.8049 0.45487L19.9974 0.504208L20.1876 0.553546L20.3789 0.606493L20.5678 0.661848L20.7555 0.719609L20.9433 0.778574L21.1298 0.841149L21.3151 0.904927L21.4992 0.971112L21.6821 1.0397L21.865 1.1107L22.0455 1.1829L22.2261 1.25751L22.4041 1.33453L22.5822 1.41395L22.7591 1.49457L22.9348 1.57881L23.1081 1.66425L23.2814 1.75089L23.4535 1.83994L23.6244 1.93139L23.794 2.02525L23.9613 2.12032L24.1286 2.21779L24.2946 2.31767L24.4583 2.41875L24.6219 2.52224L24.7832 2.62693L24.9432 2.73403L25.1021 2.84234L25.2597 2.95305L25.4162 3.06616L25.5702 3.18048L25.7242 3.296L25.8758 3.41393L26.0263 3.53306L26.1755 3.6546L26.3223 3.77855L26.4691 3.9037L26.6135 4.03005L26.7555 4.15761L26.8975 4.28757L27.0371 4.41994L27.1755 4.55351L27.3114 4.68829L27.4462 4.82427L27.5798 4.96266L27.7122 5.10225L27.8421 5.24424L27.9697 5.38624L28.096 5.53064L28.2212 5.67745L28.3451 5.82426L28.4667 5.97348L28.5858 6.1239L28.7037 6.27552L28.8193 6.42955L28.9336 6.58358L29.0467 6.74002L29.1574 6.89766L29.2657 7.0565L29.3728 7.21655L29.4775 7.3778L29.581 7.54146L29.6821 7.70511L29.7819 7.87118L29.8794 8.03844L29.9745 8.20571L30.0683 8.37539L30.1598 8.54626L30.2489 8.71834L30.3355 8.89163L30.4209 9.06491L30.5052 9.2406L30.5858 9.4175L30.6652 9.59559L30.7422 9.77369L30.8168 9.95419L30.889 10.1347L30.96 10.3176L31.0286 10.5005L31.0948 10.6846L31.1586 10.87L31.2212 11.0565L31.2801 11.2442L31.3379 11.4319L31.3932 11.6208L31.445 11.8122L31.4955 12.0023L31.5449 12.1948L31.5906 12.3874L31.6339 12.5823L31.6748 12.7761L31.7133 12.9722L31.7506 13.1684L31.7843 13.3657L31.8156 13.5643L31.8445 13.7628L31.871 13.9626L31.8963 14.1635L31.9179 14.3645L31.9372 14.5667L31.954 14.7688L31.9673 14.9722L31.9793 15.1768L31.9889 15.3813L31.9949 15.5871L31.9985 15.7929L31.9997 15.9999L31.9985 16.2056L31.9949 16.4126L31.9889 16.6172L31.9793 16.8218L31.9673 17.0263L31.954 17.2297L31.9372 17.4319L31.9179 17.634L31.8963 17.8362L31.871 18.036L31.8445 18.2357L31.8156 18.4343L31.7843 18.6328L31.7506 18.8302L31.7133 19.0263L31.6748 19.2225L31.6339 19.4174L31.5906 19.6112L31.5449 19.8037L31.4955 19.9962L31.445 20.1876L31.3932 20.3777L31.3379 20.5666L31.2801 20.7556L31.2212 20.9421L31.1586 21.1286L31.0948 21.3139L31.0286 21.498L30.96 21.6821L30.889 21.8638L30.8168 22.0444L30.7422 22.2249L30.6652 22.4042L30.5858 22.581L30.5052 22.7579L30.4209 22.9336L30.3355 23.1081L30.2489 23.2814L30.1598 23.4523L30.0683 23.6232L29.9745 23.7928L29.8794 23.9613L29.7819 24.1274L29.6821 24.2934L29.581 24.4583L29.4775 24.6207L29.3728 24.782L29.2657 24.942L29.1574 25.1021L29.0467 25.2585L28.9336 25.415L28.8193 25.5702L28.7037 25.723L28.5858 25.8746L28.4667 26.0251L28.3451 26.1743L28.2212 26.3223L28.096 26.4679L27.9697 26.6123L27.8421 26.7555L27.7122 26.8963L27.5798 27.0359L27.4462 27.1743L27.3114 27.3115L27.1755 27.4462L27.0371 27.5798L26.8975 27.711L26.7555 27.8409L26.6135 27.9697L26.4691 28.096L26.3223 28.2212L26.1755 28.3439L26.0263 28.4655L25.8758 28.5846L25.7242 28.7025L25.5702 28.8193L25.4162 28.9336L25.2597 29.0455L25.1021 29.1562L24.9432 29.2657L24.7832 29.3728L24.6219 29.4775L24.4583 29.581L24.2946 29.6821L24.1286 29.7808L23.9613 29.8782L23.794 29.9733L23.6244 30.0672L23.4535 30.1586L23.2814 30.2477L23.1081 30.3355L22.9348 30.4209L22.7591 30.504L22.5822 30.5846L22.4041 30.664L22.2261 30.741L22.0455 30.8156L21.865 30.889L21.6821 30.96L21.4992 31.0274L21.3151 31.0936L21.1298 31.1586L20.9433 31.22L20.7555 31.2801L20.5678 31.3367L20.3789 31.3921L20.1876 31.445L19.9974 31.4955L19.8049 31.5437L19.6124 31.5894L19.4174 31.6327L19.2237 31.6736L19.0275 31.7133L18.8314 31.7495L18.634 31.7831L18.4355 31.8144L18.2369 31.8445L18.0372 31.871L17.8362 31.8951L17.6352 31.9167L17.4331 31.936L17.2309 31.9528L17.0275 31.9673L16.823 31.9781L16.6184 31.9877L16.4126 31.9937L16.2068 31.9985L15.9999 31.9997L15.7941 31.9985L15.5871 31.9937L15.3825 31.9877L15.178 31.9781L14.9734 31.9673L14.77 31.9528L14.5679 31.936L14.3657 31.9167L14.1635 31.8951L13.9638 31.871L13.764 31.8445L13.5655 31.8144L13.3669 31.7831L13.1696 31.7495L12.9734 31.7133L12.7773 31.6736L12.5823 31.6327L12.3886 31.5894L12.196 31.5437L12.0035 31.4955L11.8122 31.445L11.622 31.3921L11.4331 31.3367L11.2442 31.2801L11.0577 31.22L10.8711 31.1586L10.6858 31.0936L10.5017 31.0274L10.3176 30.96L10.1359 30.889L9.95539 30.8156L9.77489 30.741L9.59558 30.664L9.41869 30.5846L9.2418 30.504L9.06611 30.4209L8.89162 30.3355L8.71834 30.2477L8.54746 30.1586L8.37658 30.0672L8.20691 29.9733L8.03844 29.8782L7.87237 29.7808L7.70631 29.6821L7.54145 29.581L7.379 29.4775L7.21775 29.3728L7.0577 29.2657L6.89765 29.1562L6.74122 29.0455L6.58478 28.9336L6.42955 28.8193L6.27672 28.7025L6.12509 28.5846L5.97467 28.4655L5.82546 28.3439L5.67745 28.2212L5.53184 28.096L5.38744 27.9697L5.24423 27.8409L5.10344 27.711L4.96385 27.5798L4.82547 27.4462L4.68828 27.3115L4.55351 27.1743L4.41993 27.0359L4.28877 26.8963L4.1588 26.7555L4.03004 26.6123L3.90369 26.4679L3.77854 26.3223L3.6558 26.1743L3.53426 26.0251L3.41513 25.8746L3.2972 25.723L3.18047 25.5702L3.06615 25.415L2.95424 25.2585L2.84353 25.1021L2.73403 24.942L2.62693 24.782L2.52223 24.6207L2.41875 24.4583L2.31766 24.2934L2.21899 24.1274L2.12152 23.9613L2.02645 23.7928L1.93259 23.6232L1.84113 23.4523L1.75208 23.2814L1.66424 23.1081L1.5788 22.9336L1.49577 22.7579L1.41514 22.581L1.33572 22.4042L1.25871 22.2249L1.1841 22.0444L1.11069 21.8638L1.0397 21.6821L0.972307 21.498L0.906122 21.3139L0.841141 21.1286L0.77977 20.9421L0.719602 20.7556L0.663044 20.5666L0.607689 20.3777L0.554741 20.1876L0.5042 19.9962L0.456066 19.8037L0.410338 19.6112L0.367017 19.4174L0.326103 19.2225L0.286392 19.0263L0.250291 18.8302L0.216597 18.6328L0.18531 18.4343L0.155226 18.2357L0.128752 18.036L0.104685 17.8362L0.0830242 17.634L0.0637704 17.4319L0.0469234 17.2297L0.0324831 17.0263L0.0216529 16.8218L0.012026 16.6172L0.00600916 16.4126L0.00119572 16.2056L-7.62939e-06 15.9999L0.00119572 15.7929L0.00600916 15.5871L0.012026 15.3813L0.0216529 15.1768L0.0324831 14.9722L0.0469234 14.7688L0.0637704 14.5667L0.0830242 14.3645L0.104685 14.1635L0.128752 13.9626L0.155226 13.7628L0.18531 13.5643L0.216597 13.3657L0.250291 13.1684L0.286392 12.9722L0.326103 12.7761L0.367017 12.5823L0.410338 12.3874L0.456066 12.1948L0.5042 12.0023L0.554741 11.8122L0.607689 11.6208L0.663044 11.4319L0.719602 11.2442L0.77977 11.0565L0.841141 10.87L0.906122 10.6846L0.972307 10.5005L1.0397 10.3176L1.11069 10.1347L1.1841 9.95419L1.25871 9.77369L1.33572 9.59559L1.41514 9.4175L1.49577 9.2406L1.5788 9.06491L1.66424 8.89163L1.75208 8.71834L1.84113 8.54626L1.93259 8.37539L2.02645 8.20571L2.12152 8.03844L2.21899 7.87118L2.31766 7.70511L2.41875 7.54146L2.52223 7.3778L2.62693 7.21655L2.73403 7.0565L2.84353 6.89766L2.95424 6.74002L3.06615 6.58358L3.18047 6.42955L3.2972 6.27552L3.41513 6.1239L3.53426 5.97348L3.6558 5.82426L3.77854 5.67745L3.90369 5.53064L4.03004 5.38624L4.1588 5.24424L4.28877 5.10225L4.41993 4.96266L4.55351 4.82427L4.68828 4.68829L4.82547 4.55351L4.96385 4.41994L5.10344 4.28757L5.24423 4.15761L5.38744 4.03005L5.53184 3.9037L5.67745 3.77855L5.82546 3.6546L5.97467 3.53306L6.12509 3.41393L6.27672 3.296L6.42955 3.18048L6.58478 3.06616L6.74122 2.95305L6.89765 2.84234L7.0577 2.73403L7.21775 2.62693L7.379 2.52224L7.54145 2.41875L7.70631 2.31767L7.87237 2.21779L8.03844 2.12032L8.20691 2.02525L8.37658 1.93139L8.54746 1.83994L8.71834 1.75089L8.89162 1.66425L9.06611 1.57881L9.2418 1.49457L9.41869 1.41395L9.59558 1.33453L9.77489 1.25751L9.95539 1.1829L10.1359 1.1107L10.3176 1.0397L10.5017 0.971112L10.6858 0.904927L10.8711 0.841149L11.0577 0.778574L11.2442 0.719609L11.4331 0.661848L11.622 0.606493L11.8122 0.553546L12.0035 0.504208L12.196 0.45487L12.3886 0.409142L12.5823 0.365821L12.7773 0.324907L12.9734 0.2864L13.1696 0.249096L13.3669 0.215401L13.5655 0.184114L13.764 0.155233L13.9638 0.12876L14.1635 0.103489L14.3657 0.0818285L14.5679 0.0625747L14.77 0.0457277L14.9734 0.0324907L15.178 0.0204571L15.3825 0.0108302L15.5871 0.00481345L15.7941 0.00120338L15.9999 0L16.2068 0.00120338ZM15.8061 1.0012L15.6124 1.00481L15.4198 1.01082L15.2285 1.01925L15.0372 1.03008L14.8458 1.04331L14.6557 1.05896L14.4668 1.07701L14.2779 1.09746L14.0901 1.12033L13.9024 1.1456L13.7159 1.17207L13.5306 1.20216L13.3453 1.23344L13.1611 1.26834L12.9782 1.30444L12.7953 1.34295L12.6136 1.38386L12.4331 1.42718L12.2526 1.47171L12.0733 1.51984L11.8952 1.56918L11.7183 1.62093L11.5414 1.67387L11.3657 1.73043L11.1912 1.78819L11.018 1.84836L10.8459 1.90973L10.6738 1.97471L10.5029 2.0409L10.3332 2.10829L10.1648 2.17808L9.99751 2.25028L9.83024 2.32489L9.66538 2.4007L9.50052 2.47892L9.33686 2.55955L9.17441 2.64138L9.01436 2.72441L8.85431 2.81105L8.69547 2.89769L8.53783 2.98794L8.38139 3.07819L8.22616 3.17206L8.07213 3.26712L7.9193 3.36339L7.76768 3.46207L7.61726 3.56195L7.46804 3.66423L7.32003 3.76772L7.17442 3.87362L7.02882 3.98071L6.88441 4.08902L6.74242 4.19973L6.60163 4.31284L6.46204 4.42596L6.32365 4.54148L6.18647 4.65941L6.05169 4.77734L5.91691 4.89768L5.78454 5.02042L5.65338 5.14316L5.52341 5.26831L5.39586 5.39466L5.26951 5.52342L5.14436 5.65339L5.02041 5.78335L4.89887 5.91692L4.77853 6.05049L4.6594 6.18647L4.54268 6.32245L4.42715 6.46084L4.31283 6.60043L4.20092 6.74122L4.09021 6.88442L3.98191 7.02762L3.87481 7.17323L3.76892 7.32004L3.66543 7.46685L3.56314 7.61607L3.46326 7.76649L3.36459 7.91811L3.26711 8.07094L3.17205 8.22497L3.07939 8.3802L2.98794 8.53664L2.89889 8.69428L2.81104 8.85312L2.7256 9.01317L2.64137 9.17442L2.55954 9.33687L2.48012 9.49932L2.4019 9.66418L2.32609 9.83025L2.25148 9.99631L2.17928 10.1636L2.10948 10.332L2.04089 10.5017L1.97471 10.6726L1.91093 10.8447L1.84835 11.0168L1.78819 11.1912L1.73042 11.3657L1.67507 11.5414L1.62092 11.7171L1.56917 11.8952L1.51984 12.0733L1.4729 12.2526L1.42718 12.4319L1.38506 12.6136L1.34415 12.7953L1.30564 12.977L1.26833 13.1611L1.23464 13.3453L1.20335 13.5294L1.17327 13.7159L1.14559 13.9024L1.12152 14.0889L1.09866 14.2767L1.0782 14.4656L1.06015 14.6545L1.04451 14.8446L1.03127 15.036L1.02044 15.2273L1.01081 15.4199L1.0048 15.6124L1.00119 15.8049L0.999984 15.9999L1.00119 16.1936L1.0048 16.3874L1.01081 16.5799L1.02044 16.7712L1.03127 16.9626L1.04451 17.1539L1.06015 17.344L1.0782 17.533L1.09866 17.7219L1.12152 17.9096L1.14559 18.0973L1.17327 18.2839L1.20335 18.4692L1.23464 18.6545L1.26833 18.8386L1.30564 19.0215L1.34415 19.2044L1.38506 19.3861L1.42718 19.5666L1.4729 19.7471L1.51984 19.9264L1.56917 20.1045L1.62092 20.2814L1.67507 20.4583L1.73042 20.634L1.78819 20.8085L1.84835 20.9818L1.91093 21.1539L1.97471 21.3259L2.04089 21.4968L2.10948 21.6665L2.17928 21.835L2.25148 22.0022L2.32609 22.1695L2.4019 22.3344L2.48012 22.4992L2.55954 22.6629L2.64137 22.8253L2.7256 22.9854L2.81104 23.1454L2.89889 23.3043L2.98794 23.4619L3.07939 23.6183L3.17205 23.7736L3.26711 23.9276L3.36459 24.0804L3.46326 24.2321L3.56314 24.3825L3.66543 24.5317L3.76892 24.6797L3.87481 24.8253L3.98191 24.9709L4.09021 25.1153L4.20092 25.2573L4.31283 25.3981L4.42715 25.5377L4.54268 25.6761L4.6594 25.8133L4.77853 25.9481L4.89887 26.0828L5.02041 26.2152L5.14436 26.3464L5.26951 26.4763L5.39586 26.6039L5.52341 26.7302L5.65338 26.8554L5.78454 26.9793L5.91691 27.1009L6.05169 27.2212L6.18647 27.3403L6.32365 27.4571L6.46204 27.5726L6.60163 27.6869L6.74242 27.7988L6.88441 27.9095L7.02882 28.0178L7.17442 28.1249L7.32003 28.2308L7.46804 28.3343L7.61726 28.4366L7.76768 28.5365L7.9193 28.6352L8.07213 28.7326L8.22616 28.8277L8.38139 28.9204L8.53783 29.0118L8.69547 29.1009L8.85431 29.1887L9.01436 29.2741L9.17441 29.3584L9.33686 29.4402L9.50052 29.5196L9.66538 29.5978L9.83024 29.6737L9.99751 29.7483L10.1648 29.8205L10.3332 29.8903L10.5029 29.9588L10.6738 30.025L10.8459 30.0888L11.018 30.1514L11.1912 30.2116L11.3657 30.2693L11.5414 30.3247L11.7183 30.3788L11.8952 30.4306L12.0733 30.4799L12.2526 30.5268L12.4331 30.5726L12.6136 30.6147L12.7953 30.6556L12.9782 30.6941L13.1611 30.7314L13.3453 30.7651L13.5306 30.7964L13.7159 30.8265L13.9024 30.8541L14.0901 30.8782L14.2779 30.9011L14.4668 30.9215L14.6557 30.9396L14.8458 30.9552L15.0372 30.9685L15.2285 30.9793L15.4198 30.9889L15.6124 30.9949L15.8061 30.9986L15.9999 30.9998L16.1948 30.9986L16.3873 30.9949L16.5799 30.9889L16.7724 30.9793L16.9638 30.9685L17.1551 30.9552L17.3452 30.9396L17.5342 30.9215L17.7231 30.9011L17.9108 30.8782L18.0973 30.8541L18.2838 30.8265L18.4704 30.7964L18.6545 30.7651L18.8386 30.7314L19.0227 30.6941L19.2044 30.6556L19.3861 30.6147L19.5678 30.5726L19.7471 30.5268L19.9264 30.4799L20.1045 30.4306L20.2826 30.3788L20.4583 30.3247L20.634 30.2693L20.8085 30.2116L20.983 30.1514L21.1551 30.0888L21.3271 30.025L21.498 29.9588L21.6677 29.8903L21.8362 29.8205L22.0034 29.7483L22.1695 29.6737L22.3356 29.5978L22.5004 29.5196L22.6629 29.4402L22.8253 29.3584L22.9866 29.2741L23.1466 29.1887L23.3055 29.1009L23.4631 29.0118L23.6195 28.9204L23.7748 28.8277L23.9288 28.7326L24.0816 28.6352L24.2333 28.5365L24.3837 28.4366L24.5329 28.3343L24.6797 28.2308L24.8265 28.1249L24.9721 28.0178L25.1153 27.9095L25.2585 27.7988L25.3993 27.6869L25.5389 27.5726L25.6773 27.4571L25.8133 27.3403L25.9492 27.2212L26.0828 27.1009L26.2164 26.9793L26.3464 26.8554L26.4763 26.7302L26.6051 26.6039L26.7314 26.4763L26.8566 26.3464L26.9793 26.2152L27.1021 26.0828L27.2224 25.9481L27.3403 25.8133L27.4583 25.6761L27.5738 25.5377L27.6869 25.3981L27.8 25.2573L27.9107 25.1153L28.019 24.9709L28.1261 24.8253L28.232 24.6797L28.3355 24.5317L28.4378 24.3825L28.5377 24.2321L28.6363 24.0804L28.7326 23.9276L28.8277 23.7736L28.9215 23.6183L29.0118 23.4619L29.102 23.3043L29.1887 23.1454L29.2753 22.9854L29.3584 22.8253L29.4402 22.6629L29.5208 22.4992L29.599 22.3344L29.6748 22.1695L29.7495 22.0022L29.8217 21.835L29.8915 21.6665L29.9588 21.4968L30.025 21.3259L30.09 21.1539L30.1514 20.9818L30.2115 20.8085L30.2693 20.634L30.3259 20.4583L30.3788 20.2814L30.4306 20.1045L30.4799 19.9264L30.528 19.7471L30.5726 19.5666L30.6159 19.3861L30.6568 19.2044L30.6953 19.0215L30.7314 18.8386L30.7663 18.6545L30.7976 18.4692L30.8277 18.2839L30.8541 18.0973L30.8794 17.9096L30.9023 17.7219L30.9227 17.533L30.9408 17.344L30.9564 17.1539L30.9697 16.9626L30.9805 16.7712L30.9889 16.5799L30.9949 16.3874L30.9985 16.1936L30.9997 15.9999L30.9985 15.8049L30.9949 15.6124L30.9889 15.4199L30.9805 15.2273L30.9697 15.036L30.9564 14.8446L30.9408 14.6545L30.9227 14.4656L30.9023 14.2767L30.8794 14.0889L30.8541 13.9024L30.8277 13.7159L30.7976 13.5294L30.7663 13.3453L30.7314 13.1611L30.6953 12.977L30.6568 12.7953L30.6159 12.6136L30.5726 12.4319L30.528 12.2526L30.4799 12.0733L30.4306 11.8952L30.3788 11.7171L30.3259 11.5414L30.2693 11.3657L30.2115 11.1912L30.1514 11.0168L30.09 10.8447L30.025 10.6726L29.9588 10.5017L29.8915 10.332L29.8217 10.1636L29.7495 9.99631L29.6748 9.83025L29.599 9.66418L29.5208 9.49932L29.4402 9.33687L29.3584 9.17442L29.2753 9.01317L29.1887 8.85312L29.102 8.69428L29.0118 8.53664L28.9215 8.3802L28.8277 8.22497L28.7326 8.07094L28.6363 7.91811L28.5377 7.76649L28.4378 7.61607L28.3355 7.46685L28.232 7.32004L28.1261 7.17323L28.019 7.02762L27.9107 6.88442L27.8 6.74122L27.6869 6.60043L27.5738 6.46084L27.4583 6.32245L27.3403 6.18647L27.2224 6.05049L27.1021 5.91692L26.9793 5.78335L26.8566 5.65339L26.7314 5.52342L26.6051 5.39466L26.4763 5.26831L26.3464 5.14316L26.2164 5.02042L26.0828 4.89768L25.9492 4.77734L25.8133 4.65941L25.6773 4.54148L25.5389 4.42596L25.3993 4.31284L25.2573 4.19973L25.1153 4.08902L24.9721 3.98071L24.8265 3.87362L24.6797 3.76772L24.5329 3.66423L24.3837 3.56195L24.2333 3.46207L24.0816 3.36339L23.9288 3.26712L23.7748 3.17206L23.6195 3.07819L23.4631 2.98794L23.3055 2.89769L23.1466 2.81105L22.9866 2.72441L22.8253 2.64138L22.6629 2.55955L22.5004 2.47892L22.3356 2.4007L22.1695 2.32489L22.0034 2.25028L21.8362 2.17808L21.6677 2.10829L21.498 2.0409L21.3271 1.97471L21.1551 1.90973L20.983 1.84836L20.8085 1.78819L20.634 1.73043L20.4583 1.67387L20.2826 1.62093L20.1045 1.56918L19.9264 1.51984L19.7471 1.47171L19.5678 1.42718L19.3861 1.38386L19.2044 1.34295L19.0227 1.30444L18.8386 1.26834L18.6545 1.23344L18.4704 1.20216L18.2838 1.17207L18.0973 1.1456L17.9108 1.12033L17.7231 1.09746L17.5342 1.07701L17.3452 1.05896L17.1551 1.04331L16.9638 1.03008L16.7724 1.01925L16.5799 1.01082L16.3873 1.00481L16.1948 1.0012L15.9999 0.999992L15.8061 1.0012Z" fill="#666D89"/>
</g>
<g clip-path="url(#clip3)">
<path fill-rule="evenodd" clip-rule="evenodd" d="M56.2068 0.00120338L56.4126 0.00481345L56.6184 0.0108302L56.823 0.0204571L57.0275 0.0324907L57.2309 0.0457277L57.4331 0.0625747L57.6352 0.0818285L57.8362 0.103489L58.0372 0.12876L58.2369 0.155233L58.4355 0.184114L58.634 0.215401L58.8314 0.249096L59.0275 0.2864L59.2237 0.324907L59.4174 0.365821L59.6124 0.409142L59.8049 0.45487L59.9974 0.504208L60.1876 0.553546L60.3789 0.606493L60.5678 0.661848L60.7555 0.719609L60.9433 0.778574L61.1298 0.841149L61.3151 0.904927L61.4992 0.971112L61.6821 1.0397L61.865 1.1107L62.0455 1.1829L62.2261 1.25751L62.4041 1.33453L62.5822 1.41395L62.7591 1.49457L62.9348 1.57881L63.1081 1.66425L63.2814 1.75089L63.4535 1.83994L63.6244 1.93139L63.794 2.02525L63.9613 2.12032L64.1286 2.21779L64.2946 2.31767L64.4583 2.41875L64.6219 2.52224L64.7832 2.62693L64.9432 2.73403L65.1021 2.84234L65.2597 2.95305L65.4162 3.06616L65.5702 3.18048L65.7242 3.296L65.8758 3.41393L66.0263 3.53306L66.1755 3.6546L66.3223 3.77855L66.4691 3.9037L66.6135 4.03005L66.7555 4.15761L66.8975 4.28757L67.0371 4.41994L67.1755 4.55351L67.3114 4.68829L67.4462 4.82427L67.5798 4.96266L67.7122 5.10225L67.8421 5.24424L67.9697 5.38624L68.096 5.53064L68.2212 5.67745L68.3451 5.82426L68.4667 5.97348L68.5858 6.1239L68.7037 6.27552L68.8193 6.42955L68.9336 6.58358L69.0467 6.74002L69.1574 6.89766L69.2657 7.0565L69.3728 7.21655L69.4775 7.3778L69.581 7.54146L69.6821 7.70511L69.7819 7.87118L69.8794 8.03844L69.9745 8.20571L70.0683 8.37539L70.1598 8.54626L70.2489 8.71834L70.3355 8.89163L70.4209 9.06491L70.5052 9.2406L70.5858 9.4175L70.6652 9.59559L70.7422 9.77369L70.8168 9.95419L70.889 10.1347L70.96 10.3176L71.0286 10.5005L71.0948 10.6846L71.1586 10.87L71.2212 11.0565L71.2801 11.2442L71.3379 11.4319L71.3932 11.6208L71.445 11.8122L71.4955 12.0023L71.5449 12.1948L71.5906 12.3874L71.6339 12.5823L71.6748 12.7761L71.7133 12.9722L71.7506 13.1684L71.7843 13.3657L71.8156 13.5643L71.8445 13.7628L71.871 13.9626L71.8963 14.1635L71.9179 14.3645L71.9372 14.5667L71.954 14.7688L71.9673 14.9722L71.9793 15.1768L71.9889 15.3813L71.9949 15.5871L71.9985 15.7929L71.9997 15.9999L71.9985 16.2056L71.9949 16.4126L71.9889 16.6172L71.9793 16.8218L71.9673 17.0263L71.954 17.2297L71.9372 17.4319L71.9179 17.634L71.8963 17.8362L71.871 18.036L71.8445 18.2357L71.8156 18.4343L71.7843 18.6328L71.7506 18.8302L71.7133 19.0263L71.6748 19.2225L71.6339 19.4174L71.5906 19.6112L71.5449 19.8037L71.4955 19.9962L71.445 20.1876L71.3932 20.3777L71.3379 20.5666L71.2801 20.7556L71.2212 20.9421L71.1586 21.1286L71.0948 21.3139L71.0286 21.498L70.96 21.6821L70.889 21.8638L70.8168 22.0444L70.7422 22.2249L70.6652 22.4042L70.5858 22.581L70.5052 22.7579L70.4209 22.9336L70.3355 23.1081L70.2489 23.2814L70.1598 23.4523L70.0683 23.6232L69.9745 23.7928L69.8794 23.9613L69.7819 24.1274L69.6821 24.2934L69.581 24.4583L69.4775 24.6207L69.3728 24.782L69.2657 24.942L69.1574 25.1021L69.0467 25.2585L68.9336 25.415L68.8193 25.5702L68.7037 25.723L68.5858 25.8746L68.4667 26.0251L68.3451 26.1743L68.2212 26.3223L68.096 26.4679L67.9697 26.6123L67.8421 26.7555L67.7122 26.8963L67.5798 27.0359L67.4462 27.1743L67.3114 27.3115L67.1755 27.4462L67.0371 27.5798L66.8975 27.711L66.7555 27.8409L66.6135 27.9697L66.4691 28.096L66.3223 28.2212L66.1755 28.3439L66.0263 28.4655L65.8758 28.5846L65.7242 28.7025L65.5702 28.8193L65.4162 28.9336L65.2597 29.0455L65.1021 29.1562L64.9432 29.2657L64.7832 29.3728L64.6219 29.4775L64.4583 29.581L64.2946 29.6821L64.1286 29.7808L63.9613 29.8782L63.794 29.9733L63.6244 30.0672L63.4535 30.1586L63.2814 30.2477L63.1081 30.3355L62.9348 30.4209L62.7591 30.504L62.5822 30.5846L62.4041 30.664L62.2261 30.741L62.0455 30.8156L61.865 30.889L61.6821 30.96L61.4992 31.0274L61.3151 31.0936L61.1298 31.1586L60.9433 31.22L60.7555 31.2801L60.5678 31.3367L60.3789 31.3921L60.1876 31.445L59.9974 31.4955L59.8049 31.5437L59.6124 31.5894L59.4174 31.6327L59.2237 31.6736L59.0275 31.7133L58.8314 31.7495L58.634 31.7831L58.4355 31.8144L58.2369 31.8445L58.0372 31.871L57.8362 31.8951L57.6352 31.9167L57.4331 31.936L57.2309 31.9528L57.0275 31.9673L56.823 31.9781L56.6184 31.9877L56.4126 31.9937L56.2068 31.9985L55.9999 31.9997L55.7941 31.9985L55.5871 31.9937L55.3825 31.9877L55.178 31.9781L54.9734 31.9673L54.77 31.9528L54.5679 31.936L54.3657 31.9167L54.1635 31.8951L53.9638 31.871L53.764 31.8445L53.5655 31.8144L53.3669 31.7831L53.1696 31.7495L52.9734 31.7133L52.7773 31.6736L52.5823 31.6327L52.3886 31.5894L52.196 31.5437L52.0035 31.4955L51.8122 31.445L51.622 31.3921L51.4331 31.3367L51.2442 31.2801L51.0577 31.22L50.8711 31.1586L50.6858 31.0936L50.5017 31.0274L50.3176 30.96L50.1359 30.889L49.9554 30.8156L49.7749 30.741L49.5956 30.664L49.4187 30.5846L49.2418 30.504L49.0661 30.4209L48.8916 30.3355L48.7183 30.2477L48.5475 30.1586L48.3766 30.0672L48.2069 29.9733L48.0384 29.8782L47.8724 29.7808L47.7063 29.6821L47.5414 29.581L47.379 29.4775L47.2177 29.3728L47.0577 29.2657L46.8977 29.1562L46.7412 29.0455L46.5848 28.9336L46.4295 28.8193L46.2767 28.7025L46.1251 28.5846L45.9747 28.4655L45.8255 28.3439L45.6774 28.2212L45.5318 28.096L45.3874 27.9697L45.2442 27.8409L45.1034 27.711L44.9639 27.5798L44.8255 27.4462L44.6883 27.3115L44.5535 27.1743L44.4199 27.0359L44.2888 26.8963L44.1588 26.7555L44.03 26.6123L43.9037 26.4679L43.7785 26.3223L43.6558 26.1743L43.5343 26.0251L43.4151 25.8746L43.2972 25.723L43.1805 25.5702L43.0662 25.415L42.9542 25.2585L42.8435 25.1021L42.734 24.942L42.6269 24.782L42.5222 24.6207L42.4187 24.4583L42.3177 24.2934L42.219 24.1274L42.1215 23.9613L42.0265 23.7928L41.9326 23.6232L41.8411 23.4523L41.7521 23.2814L41.6642 23.1081L41.5788 22.9336L41.4958 22.7579L41.4151 22.581L41.3357 22.4042L41.2587 22.2249L41.1841 22.0444L41.1107 21.8638L41.0397 21.6821L40.9723 21.498L40.9061 21.3139L40.8411 21.1286L40.7798 20.9421L40.7196 20.7556L40.663 20.5666L40.6077 20.3777L40.5547 20.1876L40.5042 19.9962L40.4561 19.8037L40.4103 19.6112L40.367 19.4174L40.3261 19.2225L40.2864 19.0263L40.2503 18.8302L40.2166 18.6328L40.1853 18.4343L40.1552 18.2357L40.1288 18.036L40.1047 17.8362L40.083 17.634L40.0638 17.4319L40.0469 17.2297L40.0325 17.0263L40.0217 16.8218L40.012 16.6172L40.006 16.4126L40.0012 16.2056L40 15.9999L40.0012 15.7929L40.006 15.5871L40.012 15.3813L40.0217 15.1768L40.0325 14.9722L40.0469 14.7688L40.0638 14.5667L40.083 14.3645L40.1047 14.1635L40.1288 13.9626L40.1552 13.7628L40.1853 13.5643L40.2166 13.3657L40.2503 13.1684L40.2864 12.9722L40.3261 12.7761L40.367 12.5823L40.4103 12.3874L40.4561 12.1948L40.5042 12.0023L40.5547 11.8122L40.6077 11.6208L40.663 11.4319L40.7196 11.2442L40.7798 11.0565L40.8411 10.87L40.9061 10.6846L40.9723 10.5005L41.0397 10.3176L41.1107 10.1347L41.1841 9.95419L41.2587 9.77369L41.3357 9.59559L41.4151 9.4175L41.4958 9.2406L41.5788 9.06491L41.6642 8.89163L41.7521 8.71834L41.8411 8.54626L41.9326 8.37539L42.0265 8.20571L42.1215 8.03844L42.219 7.87118L42.3177 7.70511L42.4187 7.54146L42.5222 7.3778L42.6269 7.21655L42.734 7.0565L42.8435 6.89766L42.9542 6.74002L43.0662 6.58358L43.1805 6.42955L43.2972 6.27552L43.4151 6.1239L43.5343 5.97348L43.6558 5.82426L43.7785 5.67745L43.9037 5.53064L44.03 5.38624L44.1588 5.24424L44.2888 5.10225L44.4199 4.96266L44.5535 4.82427L44.6883 4.68829L44.8255 4.55351L44.9639 4.41994L45.1034 4.28757L45.2442 4.15761L45.3874 4.03005L45.5318 3.9037L45.6774 3.77855L45.8255 3.6546L45.9747 3.53306L46.1251 3.41393L46.2767 3.296L46.4295 3.18048L46.5848 3.06616L46.7412 2.95305L46.8977 2.84234L47.0577 2.73403L47.2177 2.62693L47.379 2.52224L47.5414 2.41875L47.7063 2.31767L47.8724 2.21779L48.0384 2.12032L48.2069 2.02525L48.3766 1.93139L48.5475 1.83994L48.7183 1.75089L48.8916 1.66425L49.0661 1.57881L49.2418 1.49457L49.4187 1.41395L49.5956 1.33453L49.7749 1.25751L49.9554 1.1829L50.1359 1.1107L50.3176 1.0397L50.5017 0.971112L50.6858 0.904927L50.8711 0.841149L51.0577 0.778574L51.2442 0.719609L51.4331 0.661848L51.622 0.606493L51.8122 0.553546L52.0035 0.504208L52.196 0.45487L52.3886 0.409142L52.5823 0.365821L52.7773 0.324907L52.9734 0.2864L53.1696 0.249096L53.3669 0.215401L53.5655 0.184114L53.764 0.155233L53.9638 0.12876L54.1635 0.103489L54.3657 0.0818285L54.5679 0.0625747L54.77 0.0457277L54.9734 0.0324907L55.178 0.0204571L55.3825 0.0108302L55.5871 0.00481345L55.7941 0.00120338L55.9999 0L56.2068 0.00120338ZM55.8061 1.0012L55.6124 1.00481L55.4198 1.01082L55.2285 1.01925L55.0372 1.03008L54.8458 1.04331L54.6557 1.05896L54.4668 1.07701L54.2779 1.09746L54.0901 1.12033L53.9024 1.1456L53.7159 1.17207L53.5306 1.20216L53.3453 1.23344L53.1611 1.26834L52.9782 1.30444L52.7953 1.34295L52.6136 1.38386L52.4331 1.42718L52.2526 1.47171L52.0733 1.51984L51.8952 1.56918L51.7183 1.62093L51.5414 1.67387L51.3657 1.73043L51.1912 1.78819L51.018 1.84836L50.8459 1.90973L50.6738 1.97471L50.5029 2.0409L50.3332 2.10829L50.1648 2.17808L49.9975 2.25028L49.8302 2.32489L49.6654 2.4007L49.5005 2.47892L49.3369 2.55955L49.1744 2.64138L49.0144 2.72441L48.8543 2.81105L48.6955 2.89769L48.5378 2.98794L48.3814 3.07819L48.2262 3.17206L48.0721 3.26712L47.9193 3.36339L47.7677 3.46207L47.6173 3.56195L47.468 3.66423L47.32 3.76772L47.1744 3.87362L47.0288 3.98071L46.8844 4.08902L46.7424 4.19973L46.6016 4.31284L46.462 4.42596L46.3236 4.54148L46.1865 4.65941L46.0517 4.77734L45.9169 4.89768L45.7845 5.02042L45.6534 5.14316L45.5234 5.26831L45.3959 5.39466L45.2695 5.52342L45.1444 5.65339L45.0204 5.78335L44.8989 5.91692L44.7785 6.05049L44.6594 6.18647L44.5427 6.32245L44.4272 6.46084L44.3128 6.60043L44.2009 6.74122L44.0902 6.88442L43.9819 7.02762L43.8748 7.17323L43.7689 7.32004L43.6654 7.46685L43.5631 7.61607L43.4633 7.76649L43.3646 7.91811L43.2671 8.07094L43.172 8.22497L43.0794 8.3802L42.9879 8.53664L42.8989 8.69428L42.811 8.85312L42.7256 9.01317L42.6414 9.17442L42.5595 9.33687L42.4801 9.49932L42.4019 9.66418L42.3261 9.83025L42.2515 9.99631L42.1793 10.1636L42.1095 10.332L42.0409 10.5017L41.9747 10.6726L41.9109 10.8447L41.8484 11.0168L41.7882 11.1912L41.7304 11.3657L41.6751 11.5414L41.6209 11.7171L41.5692 11.8952L41.5198 12.0733L41.4729 12.2526L41.4272 12.4319L41.3851 12.6136L41.3441 12.7953L41.3056 12.977L41.2683 13.1611L41.2346 13.3453L41.2034 13.5294L41.1733 13.7159L41.1456 13.9024L41.1215 14.0889L41.0987 14.2767L41.0782 14.4656L41.0602 14.6545L41.0445 14.8446L41.0313 15.036L41.0204 15.2273L41.0108 15.4199L41.0048 15.6124L41.0012 15.8049L41 15.9999L41.0012 16.1936L41.0048 16.3874L41.0108 16.5799L41.0204 16.7712L41.0313 16.9626L41.0445 17.1539L41.0602 17.344L41.0782 17.533L41.0987 17.7219L41.1215 17.9096L41.1456 18.0973L41.1733 18.2839L41.2034 18.4692L41.2346 18.6545L41.2683 18.8386L41.3056 19.0215L41.3441 19.2044L41.3851 19.3861L41.4272 19.5666L41.4729 19.7471L41.5198 19.9264L41.5692 20.1045L41.6209 20.2814L41.6751 20.4583L41.7304 20.634L41.7882 20.8085L41.8484 20.9818L41.9109 21.1539L41.9747 21.3259L42.0409 21.4968L42.1095 21.6665L42.1793 21.835L42.2515 22.0022L42.3261 22.1695L42.4019 22.3344L42.4801 22.4992L42.5595 22.6629L42.6414 22.8253L42.7256 22.9854L42.811 23.1454L42.8989 23.3043L42.9879 23.4619L43.0794 23.6183L43.172 23.7736L43.2671 23.9276L43.3646 24.0804L43.4633 24.2321L43.5631 24.3825L43.6654 24.5317L43.7689 24.6797L43.8748 24.8253L43.9819 24.9709L44.0902 25.1153L44.2009 25.2573L44.3128 25.3981L44.4272 25.5377L44.5427 25.6761L44.6594 25.8133L44.7785 25.9481L44.8989 26.0828L45.0204 26.2152L45.1444 26.3464L45.2695 26.4763L45.3959 26.6039L45.5234 26.7302L45.6534 26.8554L45.7845 26.9793L45.9169 27.1009L46.0517 27.2212L46.1865 27.3403L46.3236 27.4571L46.462 27.5726L46.6016 27.6869L46.7424 27.7988L46.8844 27.9095L47.0288 28.0178L47.1744 28.1249L47.32 28.2308L47.468 28.3343L47.6173 28.4366L47.7677 28.5365L47.9193 28.6352L48.0721 28.7326L48.2262 28.8277L48.3814 28.9204L48.5378 29.0118L48.6955 29.1009L48.8543 29.1887L49.0144 29.2741L49.1744 29.3584L49.3369 29.4402L49.5005 29.5196L49.6654 29.5978L49.8302 29.6737L49.9975 29.7483L50.1648 29.8205L50.3332 29.8903L50.5029 29.9588L50.6738 30.025L50.8459 30.0888L51.018 30.1514L51.1912 30.2116L51.3657 30.2693L51.5414 30.3247L51.7183 30.3788L51.8952 30.4306L52.0733 30.4799L52.2526 30.5268L52.4331 30.5726L52.6136 30.6147L52.7953 30.6556L52.9782 30.6941L53.1611 30.7314L53.3453 30.7651L53.5306 30.7964L53.7159 30.8265L53.9024 30.8541L54.0901 30.8782L54.2779 30.9011L54.4668 30.9215L54.6557 30.9396L54.8458 30.9552L55.0372 30.9685L55.2285 30.9793L55.4198 30.9889L55.6124 30.9949L55.8061 30.9986L55.9999 30.9998L56.1948 30.9986L56.3873 30.9949L56.5799 30.9889L56.7724 30.9793L56.9638 30.9685L57.1551 30.9552L57.3452 30.9396L57.5342 30.9215L57.7231 30.9011L57.9108 30.8782L58.0973 30.8541L58.2838 30.8265L58.4704 30.7964L58.6545 30.7651L58.8386 30.7314L59.0227 30.6941L59.2044 30.6556L59.3861 30.6147L59.5678 30.5726L59.7471 30.5268L59.9264 30.4799L60.1045 30.4306L60.2826 30.3788L60.4583 30.3247L60.634 30.2693L60.8085 30.2116L60.983 30.1514L61.1551 30.0888L61.3271 30.025L61.498 29.9588L61.6677 29.8903L61.8362 29.8205L62.0034 29.7483L62.1695 29.6737L62.3356 29.5978L62.5004 29.5196L62.6629 29.4402L62.8253 29.3584L62.9866 29.2741L63.1466 29.1887L63.3055 29.1009L63.4631 29.0118L63.6195 28.9204L63.7748 28.8277L63.9288 28.7326L64.0816 28.6352L64.2333 28.5365L64.3837 28.4366L64.5329 28.3343L64.6797 28.2308L64.8265 28.1249L64.9721 28.0178L65.1153 27.9095L65.2585 27.7988L65.3993 27.6869L65.5389 27.5726L65.6773 27.4571L65.8133 27.3403L65.9492 27.2212L66.0828 27.1009L66.2164 26.9793L66.3464 26.8554L66.4763 26.7302L66.6051 26.6039L66.7314 26.4763L66.8566 26.3464L66.9793 26.2152L67.1021 26.0828L67.2224 25.9481L67.3403 25.8133L67.4583 25.6761L67.5738 25.5377L67.6869 25.3981L67.8 25.2573L67.9107 25.1153L68.019 24.9709L68.1261 24.8253L68.232 24.6797L68.3355 24.5317L68.4378 24.3825L68.5377 24.2321L68.6363 24.0804L68.7326 23.9276L68.8277 23.7736L68.9215 23.6183L69.0118 23.4619L69.102 23.3043L69.1887 23.1454L69.2753 22.9854L69.3584 22.8253L69.4402 22.6629L69.5208 22.4992L69.599 22.3344L69.6748 22.1695L69.7495 22.0022L69.8217 21.835L69.8915 21.6665L69.9588 21.4968L70.025 21.3259L70.09 21.1539L70.1514 20.9818L70.2115 20.8085L70.2693 20.634L70.3259 20.4583L70.3788 20.2814L70.4306 20.1045L70.4799 19.9264L70.528 19.7471L70.5726 19.5666L70.6159 19.3861L70.6568 19.2044L70.6953 19.0215L70.7314 18.8386L70.7663 18.6545L70.7976 18.4692L70.8277 18.2839L70.8541 18.0973L70.8794 17.9096L70.9023 17.7219L70.9227 17.533L70.9408 17.344L70.9564 17.1539L70.9697 16.9626L70.9805 16.7712L70.9889 16.5799L70.9949 16.3874L70.9985 16.1936L70.9997 15.9999L70.9985 15.8049L70.9949 15.6124L70.9889 15.4199L70.9805 15.2273L70.9697 15.036L70.9564 14.8446L70.9408 14.6545L70.9227 14.4656L70.9023 14.2767L70.8794 14.0889L70.8541 13.9024L70.8277 13.7159L70.7976 13.5294L70.7663 13.3453L70.7314 13.1611L70.6953 12.977L70.6568 12.7953L70.6159 12.6136L70.5726 12.4319L70.528 12.2526L70.4799 12.0733L70.4306 11.8952L70.3788 11.7171L70.3259 11.5414L70.2693 11.3657L70.2115 11.1912L70.1514 11.0168L70.09 10.8447L70.025 10.6726L69.9588 10.5017L69.8915 10.332L69.8217 10.1636L69.7495 9.99631L69.6748 9.83025L69.599 9.66418L69.5208 9.49932L69.4402 9.33687L69.3584 9.17442L69.2753 9.01317L69.1887 8.85312L69.102 8.69428L69.0118 8.53664L68.9215 8.3802L68.8277 8.22497L68.7326 8.07094L68.6363 7.91811L68.5377 7.76649L68.4378 7.61607L68.3355 7.46685L68.232 7.32004L68.1261 7.17323L68.019 7.02762L67.9107 6.88442L67.8 6.74122L67.6869 6.60043L67.5738 6.46084L67.4583 6.32245L67.3403 6.18647L67.2224 6.05049L67.1021 5.91692L66.9793 5.78335L66.8566 5.65339L66.7314 5.52342L66.6051 5.39466L66.4763 5.26831L66.3464 5.14316L66.2164 5.02042L66.0828 4.89768L65.9492 4.77734L65.8133 4.65941L65.6773 4.54148L65.5389 4.42596L65.3993 4.31284L65.2573 4.19973L65.1153 4.08902L64.9721 3.98071L64.8265 3.87362L64.6797 3.76772L64.5329 3.66423L64.3837 3.56195L64.2333 3.46207L64.0816 3.36339L63.9288 3.26712L63.7748 3.17206L63.6195 3.07819L63.4631 2.98794L63.3055 2.89769L63.1466 2.81105L62.9866 2.72441L62.8253 2.64138L62.6629 2.55955L62.5004 2.47892L62.3356 2.4007L62.1695 2.32489L62.0034 2.25028L61.8362 2.17808L61.6677 2.10829L61.498 2.0409L61.3271 1.97471L61.1551 1.90973L60.983 1.84836L60.8085 1.78819L60.634 1.73043L60.4583 1.67387L60.2826 1.62093L60.1045 1.56918L59.9264 1.51984L59.7471 1.47171L59.5678 1.42718L59.3861 1.38386L59.2044 1.34295L59.0227 1.30444L58.8386 1.26834L58.6545 1.23344L58.4704 1.20216L58.2838 1.17207L58.0973 1.1456L57.9108 1.12033L57.7231 1.09746L57.5342 1.07701L57.3452 1.05896L57.1551 1.04331L56.9638 1.03008L56.7724 1.01925L56.5799 1.01082L56.3873 1.00481L56.1948 1.0012L55.9999 0.999992L55.8061 1.0012Z" fill="#666D89"/>
<path d="M60.6565 14.4743V12.088H59.1722V14.4743H56.8287V15.9857H59.1722V18.372H60.6565V15.9857H63V14.4743H60.6565ZM54.6036 11.7254C54.9561 12.9875 54.4238 14.3073 53.5759 14.5505C53.4786 14.5784 53.3775 14.5927 53.2757 14.5927C52.4987 14.5927 51.7288 13.7923 51.4438 12.69C51.2846 12.0706 51.2974 11.5292 51.4802 11.0087C51.6599 10.4966 51.9824 10.1507 52.3886 10.0344C52.4862 10.0062 52.5876 9.99193 52.6892 9.99193C53.6272 9.99193 54.2301 10.3879 54.6036 11.7254ZM55.5417 19.6602C55.6103 20.7791 54.6705 21.6045 53.2594 21.7091C51.8261 21.8157 50.6462 21.1587 50.5775 20.0412C50.5442 19.5045 50.7762 18.978 51.2299 18.5591C51.6903 18.1345 52.3223 17.8727 53.0099 17.8211C53.091 17.8159 53.1716 17.8125 53.2518 17.8125C54.5783 17.8125 55.4767 18.6065 55.5417 19.6602ZM49.7427 12.4909C49.7427 13.679 50.1324 14.5368 50.9007 15.0408C51.5296 15.4534 52.2601 15.5151 52.6395 15.5151C52.7315 15.5151 52.8054 15.5116 52.8569 15.5081C52.8569 15.5081 52.7365 16.3061 53.3177 17.096L53.2914 17.0958C52.2845 17.0958 49 17.31 49 20.0594C49 22.857 52.0166 22.999 52.6217 22.999C52.669 22.999 52.6968 22.9981 52.6968 22.9981C52.7035 22.9983 52.7468 23 52.8204 23C53.2088 23 54.2127 22.9502 55.145 22.4888C56.3542 21.891 56.9679 20.8513 56.9679 19.3985C56.9679 17.9945 56.0332 17.159 55.3509 16.5482C54.9344 16.1763 54.5746 15.8549 54.5746 15.5425C54.5746 15.2241 54.8374 14.9848 55.1697 14.6818C55.7079 14.1916 56.215 13.494 56.215 12.1753C56.215 11.016 56.0674 10.2379 55.1581 9.74423C55.253 9.69475 55.5881 9.65864 55.754 9.63541C56.2468 9.56684 56.9679 9.48905 56.9679 9.07923V9H53.3753C53.3394 9.00095 49.7427 9.13666 49.7427 12.4909Z" fill="#666D89"/>
</g>
<defs>
<clipPath id="clip0">
<rect x="120" width="32" height="32" fill="white"/>
</clipPath>
<clipPath id="clip1">
<rect x="80" width="32" height="32" fill="white"/>
</clipPath>
<clipPath id="clip2">
<rect width="32" height="32" fill="white"/>
</clipPath>
<clipPath id="clip3">
<rect x="40" width="32" height="32" fill="white"/>
</clipPath>
</defs>
</svg>
